<svg width="32" height="32" fill="none" xmlns="http://www.w3.org/2000/svg"><path d="M16.823 31.923c-2.569 0-4.847-.352-6.836-1.056-1.98-.697-3.65-1.724-5.009-3.083-1.359-1.35-2.39-3.008-3.094-4.971-.705-1.964-1.057-4.206-1.057-6.725 0-2.452.356-4.656 1.069-6.612.713-1.955 1.748-3.62 3.107-4.996C6.37 3.096 8.032 2.04 9.987 1.31 11.943.581 14.163.217 16.65.217c2.378 0 4.475.372 6.29 1.118 1.814.746 3.338 1.77 4.573 3.07a13.021 13.021 0 0 1 2.809 4.475c.63 1.682.945 3.459.945 5.332 0 1.309-.083 2.589-.249 3.84-.166 1.243-.472 2.37-.92 3.38-.439 1.004-1.077 1.807-1.914 2.412-.828.597-1.905.907-3.231.932a6.542 6.542 0 0 1-2.051-.248 4.185 4.185 0 0 1-1.69-.92c-.464-.43-.746-.978-.846-1.64h-.149c-.199.488-.53.944-.994 1.366-.464.415-1.056.746-1.777.995-.713.24-1.542.34-2.486.298-1.044-.041-1.985-.277-2.822-.708a6.463 6.463 0 0 1-2.15-1.79c-.588-.762-1.04-1.666-1.355-2.71-.314-1.044-.472-2.204-.472-3.48 0-1.226.178-2.324.535-3.293.356-.978.84-1.82 1.454-2.524a7.197 7.197 0 0 1 2.138-1.69 7.464 7.464 0 0 1 2.547-.783c.87-.1 1.67-.074 2.4.075.728.149 1.333.377 1.814.683.489.307.795.642.92 1.007h.161V8.022h3.058v11.534c0 .655.17 1.21.51 1.666.347.455.84.683 1.478.683.755 0 1.343-.277 1.765-.833.431-.555.734-1.408.908-2.56.182-1.152.273-2.627.273-4.425 0-1.26-.17-2.444-.51-3.554A9.93 9.93 0 0 0 26.133 7.5a9.6 9.6 0 0 0-2.386-2.35c-.944-.654-2.022-1.16-3.231-1.515-1.202-.357-2.532-.535-3.99-.535-1.98 0-3.741.307-5.282.92C9.7 4.625 8.4 5.499 7.34 6.642c-1.052 1.144-1.852 2.515-2.4 4.114-.539 1.591-.808 3.377-.808 5.357 0 2.064.278 3.895.833 5.494.555 1.59 1.375 2.933 2.46 4.027 1.086 1.094 2.429 1.922 4.028 2.486 1.599.571 3.443.857 5.53.857.929 0 1.84-.083 2.735-.248.895-.158 1.69-.34 2.386-.547.705-.199 1.23-.36 1.579-.485l.87 2.722c-.514.24-1.197.476-2.05.709-.846.232-1.766.422-2.76.571-.986.15-1.96.224-2.92.224ZM15.68 21.582c1.077 0 1.943-.215 2.597-.646.663-.431 1.14-1.073 1.43-1.927.298-.861.447-1.939.447-3.231-.008-1.26-.17-2.262-.485-3.008-.306-.754-.787-1.293-1.441-1.616-.647-.331-1.48-.497-2.499-.497-.936 0-1.736.228-2.398.684-.655.455-1.156 1.073-1.504 1.852-.34.778-.514 1.644-.522 2.597a9.842 9.842 0 0 0 .422 2.834c.282.878.738 1.59 1.367 2.138.639.547 1.5.82 2.586.82Z" fill="#00D757"/></svg>