<svg width="166" height="38" fill="none" xmlns="http://www.w3.org/2000/svg"><path d="M4.662 29.11H0L10.476 0h5.074l10.475 29.11h-4.662l-8.23-23.823h-.227L4.662 29.11Zm3.945-11.4h8.818l1.277 3.696H7.328l1.279-3.696Z" fill="#fff"/><path d="M31.387 29.38a2.759 2.759 0 0 1-2.004-.825 2.751 2.751 0 0 1-.838-2.018c0-.777.28-1.44.838-1.99.56-.559 1.227-.838 2.005-.838.776 0 1.445.279 2.004.838a2.69 2.69 0 0 1 .838 1.99c0 .521-.132 1-.398 1.436a2.941 2.941 0 0 1-1.023 1.023 2.71 2.71 0 0 1-1.421.384Z" fill="#00D757"/><path d="M41.297 29.11V0h18.15v3.78H45.69v7.96h6.51c2.16 0 3.994.351 5.5 1.052 1.517.701 2.673 1.692 3.469 2.971.805 1.28 1.208 2.786 1.208 4.52 0 1.734-.403 3.264-1.208 4.591-.796 1.327-1.952 2.364-3.468 3.113-1.507.748-3.34 1.123-5.501 1.123H41.297Zm4.392-3.696h6.51c1.25 0 2.307-.246 3.17-.739.871-.493 1.53-1.132 1.975-1.919.455-.786.682-1.63.682-2.53 0-1.308-.502-2.43-1.506-3.368-1.005-.948-2.445-1.422-4.321-1.422h-6.51v9.978Zm19.532 11.883V7.277h4.15v3.54h.356c.246-.455.602-.981 1.066-1.578.464-.597 1.109-1.118 1.933-1.564.825-.454 1.914-.682 3.27-.682 1.762 0 3.335.446 4.718 1.336 1.384.891 2.469 2.175 3.255 3.852.796 1.677 1.194 3.696 1.194 6.055 0 2.36-.393 4.383-1.18 6.07-.786 1.677-1.866 2.97-3.24 3.88-1.374.9-2.942 1.35-4.705 1.35-1.327 0-2.412-.223-3.255-.668-.834-.445-1.488-.966-1.961-1.563-.474-.597-.839-1.128-1.095-1.592h-.256v11.584h-4.25Zm4.165-19.103c0 1.535.223 2.88.668 4.036.445 1.156 1.09 2.061 1.933 2.715.844.644 1.876.967 3.099.967 1.27 0 2.33-.337 3.184-1.01.852-.682 1.497-1.606 1.933-2.771.445-1.166.668-2.478.668-3.937 0-1.44-.218-2.734-.654-3.88-.427-1.147-1.07-2.052-1.933-2.716-.853-.663-1.92-.995-3.198-.995-1.232 0-2.275.318-3.127.953-.844.635-1.483 1.52-1.92 2.658-.435 1.137-.653 2.463-.653 3.98Zm24.891 11.399c-1.383 0-2.634-.256-3.752-.768-1.119-.52-2.005-1.274-2.658-2.26-.645-.985-.967-2.193-.967-3.624 0-1.232.237-2.246.71-3.042a5.244 5.244 0 0 1 1.92-1.89 10.021 10.021 0 0 1 2.7-1.052 26.85 26.85 0 0 1 3.042-.54l3.184-.37c.815-.104 1.407-.27 1.777-.497.369-.228.554-.597.554-1.109v-.1c0-1.24-.351-2.202-1.052-2.885-.692-.682-1.725-1.023-3.099-1.023-1.43 0-2.558.317-3.382.952-.815.626-1.38 1.322-1.692 2.09l-3.994-.91c.474-1.327 1.166-2.397 2.075-3.212a8.417 8.417 0 0 1 3.17-1.791 12.374 12.374 0 0 1 3.767-.569c.871 0 1.795.104 2.771.313a8.114 8.114 0 0 1 2.758 1.109c.862.54 1.568 1.312 2.118 2.316.549.995.824 2.289.824 3.88V29.11h-4.15v-2.985h-.171c-.275.55-.687 1.09-1.237 1.62s-1.255.971-2.117 1.322c-.863.35-1.895.526-3.099.526Zm.924-3.411c1.175 0 2.18-.232 3.013-.697.844-.464 1.483-1.07 1.919-1.82a4.723 4.723 0 0 0 .668-2.43v-2.814c-.151.152-.445.294-.881.426a13.63 13.63 0 0 1-1.464.327c-.55.086-1.085.166-1.606.242-.521.066-.957.123-1.308.17-.824.105-1.578.28-2.26.526-.673.247-1.213.602-1.62 1.066-.398.455-.597 1.062-.597 1.82 0 1.052.388 1.848 1.165 2.388.777.53 1.767.796 2.97.796Zm27.467-18.905v3.668h-9.765V29.11h-4.193V7.277h13.958Zm6.655 15.877 9.623-15.877h4.577V29.11h-4.165V13.219l-9.58 15.89h-4.62V7.278h4.165v15.877Zm32.709-6.794v3.681h-11.826V16.36h11.826ZM151.4 7.277V29.11h-4.165V7.277h4.165Zm13.602 0V29.11h-4.15V7.277h4.15Z" fill="#fff"/></svg>