<svg width="238" height="238" fill="none" xmlns="http://www.w3.org/2000/svg"><g clip-path="url(#a)"><path d="m65.6 36.2-11.19-3.47-2 1.48 5.5 7.59-2 1.45-12-16.54 2-1.45 5.2 7.17.89-.63 1.43-12 2.39-1.73-1.46 12.14L68 34.47l-2.4 1.73Zm21.452-25.38-2.31.89a5.178 5.178 0 0 0-1.38-1.48 5.3 5.3 0 0 0-1.72-.8 5.68 5.68 0 0 0-1.89-.17 7 7 0 0 0-1.93.44 6.23 6.23 0 0 0-2.82 2.08 6.421 6.421 0 0 0-1.23 3.43 10.172 10.172 0 0 0 .77 4.5c.52 1.458 1.36 2.78 2.46 3.87a6.5 6.5 0 0 0 3.2 1.72 6.18 6.18 0 0 0 3.47-.3 6.917 6.917 0 0 0 1.73-1 5.708 5.708 0 0 0 1.3-1.39 5.138 5.138 0 0 0 .74-1.75c.128-.66.128-1.34 0-2l2.35-.86c.201.988.221 2.005.06 3a7.73 7.73 0 0 1-1 2.62 8.094 8.094 0 0 1-1.82 2.1 9.578 9.578 0 0 1-2.56 1.46 8.59 8.59 0 0 1-4.8.47 8.69 8.69 0 0 1-4.28-2.25 12.34 12.34 0 0 1-3.09-4.79 12.421 12.421 0 0 1-.91-5.64 8.81 8.81 0 0 1 1.69-4.53 8.54 8.54 0 0 1 3.92-2.9 9.3 9.3 0 0 1 2.87-.62 7.82 7.82 0 0 1 2.77.35 7.57 7.57 0 0 1 2.46 1.3 8.249 8.249 0 0 1 1.95 2.25Zm23.368-.49a12.456 12.456 0 0 1-.25 5.7 8.77 8.77 0 0 1-2.58 4.1 9.057 9.057 0 0 1-9.17 1.49 8.8 8.8 0 0 1-3.75-3.06 12.53 12.53 0 0 1-2-5.33 12.47 12.47 0 0 1 .26-5.7 8.76 8.76 0 0 1 2.57-4.1 9.07 9.07 0 0 1 9.18-1.49A8.766 8.766 0 0 1 108.37 5a12.524 12.524 0 0 1 2.05 5.33Zm-2.36.38a10.343 10.343 0 0 0-1.59-4.27 6.504 6.504 0 0 0-2.8-2.35 6.24 6.24 0 0 0-3.46-.38A6.31 6.31 0 0 0 97 5.17a6.5 6.5 0 0 0-1.9 3.12 10.07 10.07 0 0 0-.1 4.56 10.079 10.079 0 0 0 1.59 4.27 6.451 6.451 0 0 0 2.8 2.35 6.5 6.5 0 0 0 6.61-1.08 6.524 6.524 0 0 0 1.91-3.11 10.4 10.4 0 0 0 .15-4.57Zm5.76-8.5.05-2.21 15.31.33-.05 2.2-6.42-.14-.39 18.22-2.48-.05.4-18.23-6.42-.12Zm17.918 19 4-20 6.77 1.33a7.922 7.922 0 0 1 3.69 1.61 5.368 5.368 0 0 1 1.78 2.73 7.253 7.253 0 0 1 .09 3.35 7.129 7.129 0 0 1-1.36 3.08 5.365 5.365 0 0 1-2.71 1.82 7.7 7.7 0 0 1-4 .1l-4.85-1 .42-2.15 4.78.94a5.271 5.271 0 0 0 2.7 0c.688-.22 1.29-.65 1.72-1.23a5.212 5.212 0 0 0 .87-2.07 5.1 5.1 0 0 0 0-2.24 3.305 3.305 0 0 0-1.14-1.78 5.561 5.561 0 0 0-2.5-1.06l-4.3-.84-3.53 17.89-2.43-.48Zm17.543 4.3.83-2.16 1.19.46a2.54 2.54 0 0 0 1.27.17 2.638 2.638 0 0 0 1.05-.4c.307-.203.592-.438.85-.7l.57-.59-1.04-17.13 2.49 1 .76 13.84 9.34-10 2.46.94-12.71 13.43a13.2 13.2 0 0 1-1.52 1.32c-.54.38-1.165.624-1.82.71a5.243 5.243 0 0 1-2.49-.42l-1.23-.47Zm10.457 8.78 3.74-6.08 1.12.69a6.7 6.7 0 0 0 2-.82 12.242 12.242 0 0 0 2.47-2 28.976 28.976 0 0 0 3-3.82l4.93-7.15 10.33 6.36-9.58 15.53 2 1.23-3.75 6.05-2-1.28 2.58-4.18-12.26-7.55-2.6 4.21-1.98-1.19Zm7.38-3.84 8.62 5.31 8.42-13.65-6.42-4-3.64 5.3a36.748 36.748 0 0 1-2.48 3.23 19.485 19.485 0 0 1-2.34 2.36 10.854 10.854 0 0 1-2.16 1.45Zm13.652 11.49 14-14.86 1.8 1.7-6.24 6.61 7.92 7.48 6.24-6.62 1.8 1.7-14 14.86-1.8-1.7 6.27-6.64-7.92-7.47-6.27 6.64-1.8-1.7Zm30.892 2.18 1.39 2-13.17 9.22.12.16 19.57-.07 1.38 2-16.74 11.68-1.42-2 13.14-9.2-.11-.16-19.52.08-1.38-2 16.74-11.71ZM229.93 76l1 2.27-18.7 8.2-1-2.26 18.7-8.21Zm-5-11.39 1 2.26-6.24 2.74a4.561 4.561 0 0 0-2 1.44 2.773 2.773 0 0 0-.51 1.86c.065.772.265 1.527.59 2.23.22.51.45 1 .7 1.45.25.45.51.89.78 1.32.27.43.56.82.85 1.21.29.39.6.77.91 1.13l-2 .9c-.31-.35-.6-.7-.88-1.06-.28-.36-.55-.73-.81-1.12a18.918 18.918 0 0 1-1.56-2.93 10.02 10.02 0 0 1-.9-3.57 4.64 4.64 0 0 1 .86-2.93 7.074 7.074 0 0 1 3-2.2l6.21-2.73Zm-11.539 25.82 19.87-4.73 2.85 12-2.11.5-2.28-9.58-6.72 1.59 2.14 9-2.14.51-2.13-9-6.76 1.61 2.32 9.74-2.13.51-2.91-12.15Zm18.367 31.26-.13-2.47a5.145 5.145 0 0 0 1.83-.86 5.359 5.359 0 0 0 1.3-1.39c.34-.539.59-1.13.74-1.75a6.759 6.759 0 0 0 .17-2 6.147 6.147 0 0 0-1.11-3.3 6.429 6.429 0 0 0-2.88-2.24 11.752 11.752 0 0 0-8.94.47 6.41 6.41 0 0 0-2.64 2.53 6.257 6.257 0 0 0-.76 3.4c.034.658.162 1.308.38 1.93.214.603.525 1.167.92 1.67.403.496.891.916 1.44 1.24a5.119 5.119 0 0 0 1.9.67l.13 2.47a8.625 8.625 0 0 1-2.85-.87 7.597 7.597 0 0 1-2.19-1.73 7.903 7.903 0 0 1-1.44-2.38 9.018 9.018 0 0 1-.6-2.88 8.58 8.58 0 0 1 1-4.71 8.758 8.758 0 0 1 3.46-3.39 12.541 12.541 0 0 1 5.52-1.46c1.92-.149 3.848.152 5.63.88a8.791 8.791 0 0 1 3.8 3 8.605 8.605 0 0 1 1.52 4.58 9.367 9.367 0 0 1-.3 2.93 8.062 8.062 0 0 1-1.18 2.52 7.533 7.533 0 0 1-2 1.94 7.97 7.97 0 0 1-2.72 1.2Zm3.872 5.17 2.17.29-2 15.18-2.18-.29.86-6.36-18.07-2.43.33-2.46 18.07 2.43.82-6.36Zm-20.87 15.7 19.46 6.21-2.17 6.81a7.44 7.44 0 0 1-1.77 3.13 4.902 4.902 0 0 1-2.5 1.37 5.591 5.591 0 0 1-2.8-.18 4.636 4.636 0 0 1-1.94-1.11 3.77 3.77 0 0 1-.92-1.57 5.63 5.63 0 0 1-.2-1.78l-.19-.06a4.06 4.06 0 0 1-1.2 1.6 4.844 4.844 0 0 1-2.12 1 5.412 5.412 0 0 1-2.8-.23 5.53 5.53 0 0 1-2.42-1.5 4.793 4.793 0 0 1-1.18-2.69 9.163 9.163 0 0 1 .51-4l2.24-7Zm1.34 3-1.49 4.67a5.067 5.067 0 0 0-.15 3.57 2.998 2.998 0 0 0 1.87 1.67 3.638 3.638 0 0 0 2 .08 3.892 3.892 0 0 0 1.8-1 4.913 4.913 0 0 0 1.22-2l1.52-4.79-6.77-2.2Zm8.82 2.81-1.4 4.37a4.459 4.459 0 0 0-.19 2.06c.082.637.338 1.239.74 1.74.42.514.985.89 1.62 1.08a3.128 3.128 0 0 0 2.47-.19 4.059 4.059 0 0 0 1.8-2.55l1.42-4.45-6.46-2.06Zm-16.579 11.51 2 1.07-.59 1.13a2.633 2.633 0 0 0-.32 1.24c.017.379.113.75.28 1.09.164.33.361.642.59.93l.53.63 17.17 1.03-1.24 2.37-13.85-.89 8.86 10.44-1.22 2.33-11.89-14.25a13.26 13.26 0 0 1-1.13-1.66 4 4 0 0 1-.5-1.9 5.153 5.153 0 0 1 .7-2.41l.61-1.15Zm-37.462 42.85 11.12 3.68 2.07-1.44-5.36-7.69 2-1.42 11.67 16.77-2 1.41-5.06-7.27-.88.62-1.66 11.94-2.42 1.67 1.64-12.07-13.55-4.52 2.43-1.68Zm-21.88 24.96 2.33-.84a5.352 5.352 0 0 0 1.35 1.51 5.417 5.417 0 0 0 1.71.83c.614.172 1.253.24 1.89.2a6.928 6.928 0 0 0 1.93-.4 6.22 6.22 0 0 0 2.84-2 6.503 6.503 0 0 0 1.3-3.41 10.244 10.244 0 0 0-.69-4.51 10.1 10.1 0 0 0-2.35-3.91 6.396 6.396 0 0 0-3.18-1.79 6.115 6.115 0 0 0-3.48.26c-.622.22-1.209.53-1.74.92a5.984 5.984 0 0 0-1.33 1.37 5.501 5.501 0 0 0-.77 1.73 5.2 5.2 0 0 0-.08 2l-2.33.84a8.05 8.05 0 0 1 0-3 7.541 7.541 0 0 1 1-2.6 7.792 7.792 0 0 1 1.87-2.07 9.14 9.14 0 0 1 2.58-1.41 8.555 8.555 0 0 1 4.8-.38 8.802 8.802 0 0 1 4.25 2.33 13.947 13.947 0 0 1 3.79 10.5 8.774 8.774 0 0 1-1.78 4.51 8.566 8.566 0 0 1-3.93 2.78 9.299 9.299 0 0 1-2.89.56 7.825 7.825 0 0 1-5.2-1.74 8.363 8.363 0 0 1-1.89-2.28Zm-23.409.05A12.39 12.39 0 0 1 126 222a8.842 8.842 0 0 1 2.65-4 8.63 8.63 0 0 1 4.42-1.92 8.517 8.517 0 0 1 4.78.6 8.802 8.802 0 0 1 3.69 3.14 13.906 13.906 0 0 1 1.58 11.06 8.75 8.75 0 0 1-2.65 4 9.123 9.123 0 0 1-9.2 1.32 8.874 8.874 0 0 1-3.69-3.14 12.403 12.403 0 0 1-1.99-5.32Zm2.37-.34c.17 1.529.687 3 1.51 4.3a6.417 6.417 0 0 0 2.75 2.4 6.49 6.49 0 0 0 6.64-.95 6.49 6.49 0 0 0 2-3.08c.761-3.005.305-6.19-1.27-8.86a6.582 6.582 0 0 0-2.75-2.4 6.47 6.47 0 0 0-6.65 1 6.472 6.472 0 0 0-2 3.07 10.137 10.137 0 0 0-.19 4.52h-.04Zm-5.901 8.39-.06 2.21-15.3-.62.08-2.19 6.42.26.74-18.22 2.47.1-.74 18.22 6.39.24Zm-17.548-19.33-4.33 20-6.75-1.46a8.002 8.002 0 0 1-3.66-1.68 5.35 5.35 0 0 1-1.72-2.75 7.05 7.05 0 0 1 0-3.36 7.201 7.201 0 0 1 1.41-3 5.566 5.566 0 0 1 2.7-1.82 7.837 7.837 0 0 1 4 0l4.84 1.05-.47 2.14-4.76-1a5.324 5.324 0 0 0-2.7 0 3.389 3.389 0 0 0-1.74 1.2 5.005 5.005 0 0 0-.91 2.05 5.151 5.151 0 0 0 0 2.24 3.382 3.382 0 0 0 1.11 1.8 5.542 5.542 0 0 0 2.49 1.1l4.26.93 3.86-17.82 2.37.38Zm-17.461-4.63-.87 2.17-1.18-.5a2.408 2.408 0 0 0-1.25-.2 2.612 2.612 0 0 0-1.06.38 5.343 5.343 0 0 0-.87.68l-.58.58.69 17.15-2.48-1-.45-13.87-9.52 9.83-2.44-1 13-13.23a13.22 13.22 0 0 1 1.55-1.29 3.951 3.951 0 0 1 1.83-.68 5.155 5.155 0 0 1 2.47.47l1.16.51Zm-10.321-8.99-3.86 6-1.11-.71a6.296 6.296 0 0 0-2 .78 12.484 12.484 0 0 0-2.51 2 29.786 29.786 0 0 0-3.08 3.76l-5 7-10.2-6.56 9.85-15.34-2-1.27 3.84-6 2 1.28-2.66 4.16 12.12 7.79 2.67-4.16 1.94 1.27Zm-7.45 3.7-8.53-5.48-8.67 13.49 6.34 4.08 3.75-5.23a35.478 35.478 0 0 1 2.54-3.17 20.6 20.6 0 0 1 2.37-2.23 11.49 11.49 0 0 1 2.2-1.46ZM55.86 194.81l-14.3 14.58-1.77-1.73 6.37-6.5-7.78-7.62L32 200l-1.77-1.73 14.3-14.58 1.77 1.73-6.38 6.58 7.78 7.63 6.39-6.53 1.77 1.71ZM24.999 192l-1.36-2 13.36-9-.11-.16-19.58-.3-1.34-2 17-11.4 1.39 2.06-13.36 8.99.11.17 19.52.29 1.33 2L24.999 192ZM7.34 159.77l-1-2.29 18.86-7.84.95 2.29-18.81 7.84Zm4.78 11.49-.95-2.26 6.3-2.62a4.579 4.579 0 0 0 2-1.4 2.85 2.85 0 0 0 .55-1.85 6.592 6.592 0 0 0-.55-2.25c-.21-.51-.43-1-.67-1.45-.24-.45-.49-.91-.76-1.34-.27-.43-.54-.84-.82-1.23-.28-.39-.59-.78-.89-1.15l2.06-.86a20.684 20.684 0 0 1 1.65 2.22c.26.4.5.84.75 1.32.25.48.49 1 .75 1.63a9.741 9.741 0 0 1 .83 3.59 4.617 4.617 0 0 1-.92 2.92 7 7 0 0 1-3 2.13l-6.33 2.6Zm12.038-25.58L4.198 150l-2.62-12 2.14-.47 2.1 9.63 6.74-1.47-2-9 2.15-.47 2 9 6.78-1.48-2.13-9.79 2.14-.46 2.66 12.19ZM6.391 114.11l.08 2.47a5.15 5.15 0 0 0-3.16 2.19 5.712 5.712 0 0 0-.78 1.74 7.06 7.06 0 0 0-.21 2 6.193 6.193 0 0 0 1.05 3.32 6.4 6.4 0 0 0 2.84 2.29c1.426.581 2.964.831 4.5.73a10.11 10.11 0 0 0 4.45-1 6.452 6.452 0 0 0 2.68-2.47 6.24 6.24 0 0 0 .83-3.39 6.997 6.997 0 0 0-.35-1.94 5.416 5.416 0 0 0-.89-1.68 4.912 4.912 0 0 0-3.32-2.07l-.08-2.48c.992.136 1.95.451 2.83.93a7.569 7.569 0 0 1 2.14 1.79 7.997 7.997 0 0 1 1.43 2.46c.34.93.525 1.91.55 2.9a8.56 8.56 0 0 1-1.12 4.68 8.76 8.76 0 0 1-3.52 3.32 12.587 12.587 0 0 1-5.55 1.36 12.57 12.57 0 0 1-5.62-1 8.75 8.75 0 0 1-3.73-3.08 8.46 8.46 0 0 1-1.44-4.63 8.998 8.998 0 0 1 .35-2.92 7.993 7.993 0 0 1 1.23-2.51 7.514 7.514 0 0 1 2-1.9 8.133 8.133 0 0 1 2.81-1.11Zm-3.761-5.27-2.17-.34 2.33-15.14L5 93.7 4 100l18 2.78-.38 2.45-18-2.78-.99 6.39Zm21.151-15.27L4.441 87l2.29-6.77a7.55 7.55 0 0 1 1.83-3.09 4.91 4.91 0 0 1 2.53-1.33 5.62 5.62 0 0 1 2.8.24 4.54 4.54 0 0 1 1.91 1.14c.424.448.73.994.89 1.59.152.58.21 1.181.17 1.78l.19.06a4 4 0 0 1 1.23-1.57 4.72 4.72 0 0 1 2.14-1 5.43 5.43 0 0 1 2.79.28 5.4 5.4 0 0 1 2.39 1.55 4.75 4.75 0 0 1 1.13 2.71 9.11 9.11 0 0 1-.58 3.94l-2.37 7.04Zm-10-6 1.48-4.34a4.46 4.46 0 0 0 .23-2 3.52 3.52 0 0 0-.71-1.76 3.27 3.27 0 0 0-1.6-1.11 3.121 3.121 0 0 0-2.47.15 4.1 4.1 0 0 0-1.85 2.51l-1.5 4.42 6.42 2.13Zm8.77 3 1.57-4.64a5 5 0 0 0 .22-3.57 3 3 0 0 0-1.84-1.71 3.64 3.64 0 0 0-2-.11 3.86 3.86 0 0 0-1.82 1 4.71 4.71 0 0 0-1.25 2l-1.62 4.76 6.74 2.27Zm7.979-14.22-2-1.11.61-1.12a2.39 2.39 0 0 0 .34-1.23 2.72 2.72 0 0 0-.25-1.09 4.832 4.832 0 0 0-.58-1l-.51-.64L11 68.9l1.29-2.35 13.83 1.16-8.66-10.61 1.26-2.31L30.35 69.2c.41.534.777 1.1 1.1 1.69a4.07 4.07 0 0 1 .46 1.9 5.14 5.14 0 0 1-.75 2.41l-.63 1.15Z" fill="#fff"/><path d="M201.96 193.34a5.12 5.12 0 1 0 0-10.24 5.12 5.12 0 0 0 0 10.24ZM35.41 52.78a5.12 5.12 0 1 0 0-10.24 5.12 5.12 0 0 0 0 10.24Z" fill="#04B14A"/></g><defs><clipPath id="a"><path fill="#fff" d="M0 0h238v238H0z"/></clipPath></defs></svg>