<svg width="238" height="238" fill="none" xmlns="http://www.w3.org/2000/svg"><path d="m26.637 152.741-2.014.622-.348-1.107a2.132 2.132 0 0 0-.585-1.007 2.55 2.55 0 0 0-.916-.531 4.567 4.567 0 0 0-.98-.22l-.75-.073-11.717 10.381-.723-2.326 9.575-8.357-12.45-1.053-.713-2.297 16.824 1.519c.619.069 1.23.185 1.831.348.582.17 1.111.485 1.538.915.53.573.911 1.268 1.108 2.023l.32 1.163Zm-4.822-19.644a7.872 7.872 0 0 1-.146 3.268 5.491 5.491 0 0 1-1.382 2.462 4.577 4.577 0 0 1-2.417 1.227l-.33-2.27a2.632 2.632 0 0 0 1.438-.833 3.53 3.53 0 0 0 .796-1.566 5.298 5.298 0 0 0 .064-1.986 5.15 5.15 0 0 0-.723-2.041 3.475 3.475 0 0 0-1.364-1.273 2.985 2.985 0 0 0-1.83-.274 3.298 3.298 0 0 0-1.722.769 3.377 3.377 0 0 0-.997 1.656 5.775 5.775 0 0 0-.092 2.444l.21 1.474-1.977.293-.22-1.474a4.575 4.575 0 0 0-.677-1.83 3.256 3.256 0 0 0-1.29-1.163 3.079 3.079 0 0 0-1.767-.22 3.192 3.192 0 0 0-1.565.65 2.886 2.886 0 0 0-.916 1.328 3.878 3.878 0 0 0-.128 1.83c.084.616.293 1.207.613 1.74.287.506.7.928 1.2 1.226.498.298 1.08.42 1.656.348l.312 2.16a4.395 4.395 0 0 1-2.664-.494 5.44 5.44 0 0 1-2.023-1.904 6.92 6.92 0 0 1-1.044-2.828 5.918 5.918 0 0 1 .257-3.04 4.998 4.998 0 0 1 1.538-2.151 4.872 4.872 0 0 1 2.334-1.007 4.345 4.345 0 0 1 2.746.421 4.251 4.251 0 0 1 1.83 1.987h.147a4.285 4.285 0 0 1 1.135-2.957 4.58 4.58 0 0 1 2.801-1.419 4.713 4.713 0 0 1 2.82.421 5.72 5.72 0 0 1 2.224 1.914c.616.936 1.01 2 1.153 3.112Zm-1.447-9.52-18.638-.458.101-2.288 8.293.21.257-9.932-8.303-.219.064-2.252 18.628.476-.055 2.252-8.339-.211-.247 9.941 8.33.211-.091 2.27Zm1.022-18.921-.475 2.325-16.88-10.472.476-2.28 19.635-2.938-.476 2.316-16.477 2.289v.137l14.198 8.623Zm-6.956-2.325 1.931-9.337 1.941.375-1.922 9.346-1.95-.384Zm-6.105-15.8-1.923-.686L11.148 72.7l1.886.677-1.987 5.493 15.68 5.675-.759 2.124-15.653-5.657-1.986 5.52ZM21.318 69.78l2.581-4.65a7.881 7.881 0 0 1 2.216-2.637 4.805 4.805 0 0 1 2.627-.915 5.418 5.418 0 0 1 2.81.741 5.72 5.72 0 0 1 2.151 2.014c.488.83.723 1.785.678 2.746a7.324 7.324 0 0 1-1.035 3.296L29.95 76.48l-16.294-9.053 1.099-1.968 14.536 8.11 2.307-4.137a4.275 4.275 0 0 0 .595-2.142 3.507 3.507 0 0 0-1.831-3.067 3.084 3.084 0 0 0-2.517-.22A4.128 4.128 0 0 0 25.63 66.1l-2.564 4.65-1.748-.97Zm16.57-35.6 13.676 12.67-1.529 1.665-12.21-11.314-6.409 6.884 12.23 11.314-1.538 1.648-13.667-12.66 9.447-10.207Zm23.526-6.718a11.307 11.307 0 0 1 2.18 4.723 8.001 8.001 0 0 1-.367 4.403 8.302 8.302 0 0 1-6.81 5.053 7.973 7.973 0 0 1-4.321-.915 11.251 11.251 0 0 1-3.9-3.46 11.305 11.305 0 0 1-2.178-4.724 8 8 0 0 1 .366-4.403 8.303 8.303 0 0 1 6.81-5.053 7.954 7.954 0 0 1 4.32.916 11.25 11.25 0 0 1 3.9 3.46Zm-1.757 1.3a9.392 9.392 0 0 0-3.085-2.802 5.88 5.88 0 0 0-3.25-.723 5.894 5.894 0 0 0-4.915 3.662 5.895 5.895 0 0 0-.247 3.313 9.4 9.4 0 0 0 1.83 3.763 9.153 9.153 0 0 0 3.085 2.8c.99.553 2.119.807 3.25.733a5.94 5.94 0 0 0 4.915-3.661 5.932 5.932 0 0 0 .248-3.323 9.511 9.511 0 0 0-1.831-3.79v.027Zm10.441 9.428-2.828-5.877 1.09-.522a5.926 5.926 0 0 0 .356-1.94 11.51 11.51 0 0 0-.357-2.902 26.177 26.177 0 0 0-1.446-4.193l-3.057-7.259 9.977-4.805 7.213 14.985 1.941-.916 2.81 5.84-1.931.916-1.95-4.055-11.836 5.73 1.959 4.064-1.94.934Zm.687-7.561 8.33-4.019-6.353-13.181-6.197 2.984 2.28 5.41c.481 1.138.9 2.303 1.253 3.487.295.96.51 1.943.641 2.939.11.788.125 1.587.046 2.38Zm15.663-4.815-5.08-17.932 6.059-1.721a7.323 7.323 0 0 1 3.662-.22c.988.22 1.886.738 2.572 1.483a6.517 6.517 0 0 1 1.464 2.645c.297.995.357 2.045.174 3.067a4.998 4.998 0 0 1-1.4 2.627 7.159 7.159 0 0 1-3.213 1.74l-4.34 1.262-.548-1.922 4.275-1.217a4.85 4.85 0 0 0 2.178-1.154 3.14 3.14 0 0 0 .915-1.711 4.576 4.576 0 0 0-.146-2.042 4.723 4.723 0 0 0-.915-1.83 3.067 3.067 0 0 0-1.666-.97 4.98 4.98 0 0 0-2.481.182l-3.872 1.053 4.577 16.01-2.215.65Zm29.688-14.976a11.38 11.38 0 0 1-.531 5.181 8.08 8.08 0 0 1-2.554 3.607 8.34 8.34 0 0 1-8.44.915 7.946 7.946 0 0 1-3.25-2.993 11.231 11.231 0 0 1-1.583-4.989 11.382 11.382 0 0 1 .531-5.18 7.983 7.983 0 0 1 2.553-3.598 8.316 8.316 0 0 1 8.44-.916 7.892 7.892 0 0 1 3.25 2.994 11.231 11.231 0 0 1 1.584 4.98Zm-2.17.23a9.458 9.458 0 0 0-1.227-3.983 6 6 0 0 0-2.425-2.28 5.914 5.914 0 0 0-6.097.642 5.9 5.9 0 0 0-1.904 2.746 9.459 9.459 0 0 0-.375 4.146 9.458 9.458 0 0 0 1.227 3.982 6 6 0 0 0 2.425 2.28 5.914 5.914 0 0 0 6.097-.641 5.921 5.921 0 0 0 1.904-2.746 9.504 9.504 0 0 0 .375-4.147Zm6.159 9.172 1.364-18.592 11.241.824-.147 1.995-9.007-.65-.43 5.804 4.723.348a7.9 7.9 0 0 1 3.323.915 4.698 4.698 0 0 1 1.95 1.995 5.4 5.4 0 0 1 .512 2.857 5.592 5.592 0 0 1-.915 2.8 4.92 4.92 0 0 1-2.224 1.786 7.446 7.446 0 0 1-3.424.448l-6.966-.53Zm2.398-1.832 4.715.348a4.187 4.187 0 0 0 2.196-.357 3.503 3.503 0 0 0 1.465-1.19c.34-.5.542-1.081.586-1.684a3.076 3.076 0 0 0-.861-2.38 4.082 4.082 0 0 0-2.856-1.18l-4.723-.349-.522 6.792Zm13.715 3.259 4.577-18.07 2.188.559-2.032 8.046 9.63 2.444 2.041-8.046 2.188.558-4.577 18.06-2.188-.548 2.06-8.083-9.63-2.444-2.051 8.082-2.206-.558Zm17.547 4.934L161.3 9.547l10.299 4.577-.815 1.831-8.239-3.662-2.544 5.758 7.698 3.396-.815 1.831-7.689-3.396-2.554 5.804 8.358 3.661-.806 1.83-10.408-4.576Zm13.317 6.188 9.95-15.763 9.511 6.014-1.071 1.675-7.598-4.805-3.369 5.327 7.113 4.486-1.071 1.693-7.104-4.485-3.386 5.355 7.725 4.879-1.071 1.693-9.629-6.069Zm42.074 46.657 1.977-.75.412 1.089c.132.357.356.673.65.915.267.224.579.386.915.476.326.092.66.144.998.156h.751l11.039-11.021.861 2.28-8.989 8.878 12.495.266.851 2.252-16.889-.467c-.616-.03-1.228-.11-1.831-.238a3.566 3.566 0 0 1-1.593-.806 4.746 4.746 0 0 1-1.199-1.922l-.448-1.108Zm6.051 19.306a8.03 8.03 0 0 1 0-3.268 5.596 5.596 0 0 1 1.263-2.527 4.631 4.631 0 0 1 2.352-1.373l.44 2.252a2.749 2.749 0 0 0-1.401.915 3.562 3.562 0 0 0-.714 1.602 5.393 5.393 0 0 0 0 1.987c.128.72.409 1.403.824 2.004.353.526.844.944 1.419 1.209.575.256 1.217.32 1.831.183a3.188 3.188 0 0 0 2.599-2.554 5.787 5.787 0 0 0 0-2.444l-.283-1.465 1.959-.384.292 1.464c.12.66.382 1.284.769 1.831.345.48.818.855 1.364 1.08.562.222 1.178.27 1.767.138a3.101 3.101 0 0 0 1.538-.733c.407-.363.7-.837.842-1.364a3.831 3.831 0 0 0 .046-1.83 4.794 4.794 0 0 0-.696-1.712 3.504 3.504 0 0 0-1.263-1.172 2.692 2.692 0 0 0-1.666-.265l-.43-2.142a4.503 4.503 0 0 1 2.7.375 5.545 5.545 0 0 1 2.105 1.83 6.859 6.859 0 0 1 1.181 2.747 6.024 6.024 0 0 1-.11 3.048 4.974 4.974 0 0 1-1.428 2.224 4.856 4.856 0 0 1-2.288 1.126 4.333 4.333 0 0 1-2.746-.293 4.181 4.181 0 0 1-1.941-1.894h-.146a4.358 4.358 0 0 1-.916 3.002 4.57 4.57 0 0 1-2.746 1.547 4.754 4.754 0 0 1-2.838-.284 5.737 5.737 0 0 1-2.297-1.83 7.333 7.333 0 0 1-1.382-3.03Zm2.031 9.373 18.628-.705.082 2.252-8.293.321.375 9.932 8.303-.321.082 2.261-18.628.705-.082-2.252 8.33-.32-.376-9.932-8.339.32-.082-2.261Zm.184 18.967.329-2.343 17.484 9.364-.32 2.307-19.415 4.192.329-2.343 16.312-3.332v-.147l-14.719-7.698Zm7.085 1.831-1.327 9.446-1.978-.283 1.328-9.447 1.977.284Zm7.067 15.442 1.922.559-3.872 13.437-1.922-.567 1.638-5.621-15.973-4.65.631-2.169 15.974 4.65 1.602-5.639Zm-11.903 17.521-2.28 4.806a7.83 7.83 0 0 1-2.05 2.746 4.769 4.769 0 0 1-2.563 1.098 5.384 5.384 0 0 1-2.847-.558 5.604 5.604 0 0 1-2.279-1.877 4.934 4.934 0 0 1-.852-2.746 7.385 7.385 0 0 1 .824-3.35l3.003-6.316 16.834 8.018-.971 2.033-15.058-7.131-2.032 4.275a4.263 4.263 0 0 0-.467 2.178c.035.656.251 1.29.623 1.831.343.5.814.898 1.364 1.153a3.049 3.049 0 0 0 2.517.064 4.133 4.133 0 0 0 2.142-2.233l2.288-4.806 1.804.815Zm-14.277 36.597-14.445-11.744 1.428-1.749 12.888 10.518 5.941-7.277-12.898-10.527 1.428-1.749 14.445 11.754-8.787 10.774Zm-23.034 8.202a11.437 11.437 0 0 1-2.481-4.577 8.087 8.087 0 0 1 .092-4.412 8.307 8.307 0 0 1 6.481-5.493 8.054 8.054 0 0 1 4.366.641 12.727 12.727 0 0 1 6.591 7.781 8.12 8.12 0 0 1-.092 4.421 7.93 7.93 0 0 1-7.594 5.547 7.926 7.926 0 0 1-3.253-.714 11.385 11.385 0 0 1-4.11-3.194Zm1.666-1.41a9.36 9.36 0 0 0 3.259 2.6 5.877 5.877 0 0 0 3.286.522 5.932 5.932 0 0 0 4.678-3.955 5.956 5.956 0 0 0 0-3.332 10.742 10.742 0 0 0-5.282-6.243 5.939 5.939 0 0 0-3.286-.512 5.61 5.61 0 0 0-2.893 1.318 5.706 5.706 0 0 0-1.831 2.636 5.956 5.956 0 0 0 0 3.332 9.467 9.467 0 0 0 2.069 3.634Zm-11.04-8.769 3.195 5.684-1.044.586a5.951 5.951 0 0 0-.238 1.968c.056.977.237 1.944.54 2.874a26.418 26.418 0 0 0 1.712 4.092l3.515 7.049-9.648 5.428-8.101-14.5-1.831 1.053-3.176-5.648 1.83-1.053 2.197 3.9 11.452-6.408-2.215-3.936 1.812-1.089Zm-.201 7.597-8.056 4.531 7.177 12.752 5.996-3.369-2.618-5.254a31.455 31.455 0 0 1-1.474-3.405c-.354-.94-.63-1.908-.824-2.893a10.043 10.043 0 0 1-.183-2.334l-.018-.028Zm-15.314 5.795 6.206 17.584-5.941 2.096a7.323 7.323 0 0 1-3.662.449 4.916 4.916 0 0 1-2.654-1.318 6.478 6.478 0 0 1-1.629-2.591 6.644 6.644 0 0 1-.367-3.039 4.987 4.987 0 0 1 1.227-2.746 7.177 7.177 0 0 1 3.103-1.941l4.257-1.501.668 1.886-4.193 1.483a4.782 4.782 0 0 0-2.096 1.291 3.1 3.1 0 0 0-.787 1.766c-.06.69.037 1.385.284 2.032a4.636 4.636 0 0 0 1.052 1.749 3.03 3.03 0 0 0 1.721.86 4.96 4.96 0 0 0 2.463-.329l3.744-1.318-5.493-15.69 2.097-.723Zm-28.68 16.797a11.49 11.49 0 0 1 .202-5.199 8.045 8.045 0 0 1 2.334-3.753 7.805 7.805 0 0 1 3.991-1.831 7.905 7.905 0 0 1 4.376.448 8.005 8.005 0 0 1 3.432 2.746 12.744 12.744 0 0 1 1.694 10.07 8.042 8.042 0 0 1-2.334 3.753 8.317 8.317 0 0 1-8.358 1.409 7.888 7.888 0 0 1-3.433-2.746 11.332 11.332 0 0 1-1.904-4.897Zm2.161-.357a9.212 9.212 0 0 0 1.473 3.89 5.833 5.833 0 0 0 2.564 2.124 5.89 5.89 0 0 0 6.041-1.016 5.942 5.942 0 0 0 1.721-2.847 9.329 9.329 0 0 0 .119-4.165 9.425 9.425 0 0 0-1.474-3.899 5.966 5.966 0 0 0-2.572-2.124 5.666 5.666 0 0 0-3.158-.33 5.579 5.579 0 0 0-2.874 1.355 5.902 5.902 0 0 0-1.73 2.847 9.214 9.214 0 0 0-.11 4.165Zm-6.753-8.769-.183 18.646-11.25-.11V234.1l8.998.092.055-5.831-4.733-.046a7.755 7.755 0 0 1-3.378-.686 4.7 4.7 0 0 1-2.077-1.831 5.389 5.389 0 0 1-.687-2.82 5.559 5.559 0 0 1 .741-2.846 4.91 4.91 0 0 1 2.115-1.923 7.454 7.454 0 0 1 3.387-.668l7.012.028Zm-2.28 1.949-4.732-.045a4.227 4.227 0 0 0-2.17.494 3.541 3.541 0 0 0-1.354 1.318 3.386 3.386 0 0 0-.476 1.721 3.088 3.088 0 0 0 1.007 2.316 4.167 4.167 0 0 0 2.929.998h4.732l.064-6.802Zm-13.85-2.334-3.424 18.308-2.224-.412 1.528-8.156-9.776-1.831-1.52 8.156-2.224-.412 3.433-18.307 2.215.421-1.529 8.192 9.768 1.831 1.528-8.238 2.225.448Zm-17.831-3.817-6.408 17.502-10.573-3.854.687-1.876 8.421 3.066 2.17-5.913-7.89-2.893.686-1.885 7.9 2.902 2.178-5.95-8.577-3.149.696-1.831 10.71 3.881Zm-13.695-5.337-8.953 16.349-9.868-5.401.916-1.757 7.936 4.302 3.02-5.492-7.368-4.055.915-1.758 7.378 4.037 3.076-5.547-8.019-4.385.916-1.758 10.05 5.465Zm124.5-152.887a4.668 4.668 0 1 0 0-9.337 4.668 4.668 0 0 0 0 9.337ZM35.223 189.988a4.668 4.668 0 1 0 0-9.337 4.668 4.668 0 0 0 0 9.337Z" fill="#fff"/></svg>