<svg width="29" height="33" fill="none" xmlns="http://www.w3.org/2000/svg"><path d="M15.281 25.546V24.01c0-1.164.246-2.235.739-3.21a5.855 5.855 0 0 1 2.173-2.358c.957-.596 2.121-.895 3.494-.895 1.392 0 2.562.294 3.509.881a5.63 5.63 0 0 1 2.16 2.358c.491.975.738 2.05.738 3.224v1.535c0 1.164-.247 2.239-.739 3.224a5.748 5.748 0 0 1-2.173 2.344c-.957.596-2.121.894-3.494.894-1.392 0-2.562-.298-3.509-.894a5.778 5.778 0 0 1-2.16-2.344 7.127 7.127 0 0 1-.738-3.224Zm4.134-1.535v1.535c0 .672.16 1.306.483 1.903.331.596.928.895 1.79.895.861 0 1.448-.294 1.76-.88a3.925 3.925 0 0 0 .484-1.918V24.01c0-.69-.152-1.335-.455-1.931-.303-.597-.9-.895-1.79-.895-.852 0-1.444.298-1.775.895a3.914 3.914 0 0 0-.497 1.931ZM.352 8.898V7.364c0-1.175.251-2.25.753-3.225a5.855 5.855 0 0 1 2.173-2.358c.957-.587 2.112-.88 3.466-.88 1.402 0 2.576.293 3.523.88a5.755 5.755 0 0 1 2.16 2.358c.492.976.738 2.05.738 3.225v1.534c0 1.174-.251 2.249-.753 3.224a5.749 5.749 0 0 1-2.173 2.344c-.947.578-2.112.866-3.495.866-1.382 0-2.552-.293-3.508-.88a5.9 5.9 0 0 1-2.16-2.344c-.482-.975-.724-2.046-.724-3.21Zm4.162-1.534v1.534c0 .691.161 1.33.483 1.917.332.588.914.881 1.747.881.872 0 1.463-.293 1.776-.88a3.923 3.923 0 0 0 .483-1.918V7.364c0-.692-.152-1.336-.455-1.932-.303-.597-.904-.895-1.804-.895-.842 0-1.425.303-1.747.909a4.03 4.03 0 0 0-.483 1.918ZM2.227 31l20-29.09h3.722L5.949 31H2.227Z" fill="#00D757"/></svg>