<svg width="25" height="31" viewBox="0 0 25 31" fill="none" xmlns="http://www.w3.org/2000/svg">
<path d="M10.321 30.4119C8.37027 30.4119 6.68939 30.0568 5.27841 29.3466C3.87689 28.6364 2.79735 27.6705 2.03977 26.4489C1.2822 25.2178 0.903409 23.8258 0.903409 22.2727C0.903409 21.089 1.14962 20.0379 1.64205 19.1193C2.13447 18.1913 2.82102 17.3343 3.7017 16.5483C4.58239 15.7623 5.60038 14.9716 6.75568 14.1761L11.4432 10.8665C12.2386 10.3456 12.8589 9.7964 13.304 9.21875C13.7491 8.63163 13.9716 7.9072 13.9716 7.04545C13.9716 6.36364 13.678 5.71023 13.0909 5.08523C12.5038 4.46023 11.7178 4.14773 10.733 4.14773C10.0511 4.14773 9.44981 4.31345 8.92898 4.64489C8.41761 4.97633 8.01515 5.40246 7.72159 5.9233C7.4375 6.43466 7.29545 6.97443 7.29545 7.54261C7.29545 8.20549 7.47538 8.87311 7.83523 9.54545C8.20455 10.2178 8.67803 10.9138 9.25568 11.6335C9.83333 12.3437 10.4394 13.0824 11.0739 13.8494L24.5824 30H19.7812L8.60227 16.8608C7.66477 15.7528 6.79356 14.7112 5.98864 13.7358C5.18371 12.7509 4.5303 11.7566 4.02841 10.7528C3.53598 9.73958 3.28977 8.64583 3.28977 7.47159C3.28977 6.13636 3.5928 4.95265 4.19886 3.92045C4.81439 2.87879 5.6714 2.06439 6.76989 1.47727C7.86837 0.890151 9.15625 0.59659 10.6335 0.59659C12.1297 0.59659 13.4129 0.890151 14.483 1.47727C15.5625 2.05492 16.3911 2.8267 16.9688 3.79261C17.5559 4.74905 17.8494 5.79545 17.8494 6.93182C17.8494 8.31439 17.5038 9.53598 16.8125 10.5966C16.1307 11.6477 15.1884 12.6136 13.9858 13.4943L8.14773 17.7983C7.01136 18.6316 6.22064 19.4555 5.77557 20.2699C5.33996 21.0748 5.12216 21.7045 5.12216 22.1591C5.12216 22.9924 5.33523 23.7642 5.76136 24.4744C6.19697 25.1847 6.80303 25.7528 7.57955 26.179C8.36553 26.6051 9.28409 26.8182 10.3352 26.8182C11.4148 26.8182 12.4659 26.5862 13.4886 26.1222C14.5208 25.6487 15.4536 24.9716 16.2869 24.0909C17.1297 23.2102 17.7973 22.1544 18.2898 20.9233C18.7822 19.6922 19.0284 18.3144 19.0284 16.7898H22.8636C22.8636 18.6648 22.6506 20.2509 22.2244 21.5483C21.7983 22.8362 21.2822 23.8873 20.6761 24.7017C20.0795 25.5066 19.5161 26.1364 18.9858 26.5909C18.8153 26.7424 18.6544 26.8939 18.5028 27.0455C18.3513 27.197 18.1903 27.3485 18.0199 27.5C17.035 28.4943 15.8419 29.2282 14.4403 29.7017C13.0483 30.1752 11.6752 30.4119 10.321 30.4119Z" fill="#00D757"/>
</svg>
