<svg width="32" height="32" viewBox="0 0 32 32" fill="none" xmlns="http://www.w3.org/2000/svg">
<path d="M16.8232 31.9229C14.2545 31.9229 11.9759 31.5708 9.98722 30.8665C8.00687 30.1705 6.33724 29.143 4.97834 27.7841C3.61944 26.4335 2.58783 24.7763 1.88352 22.8125C1.17921 20.8487 0.82706 18.6074 0.82706 16.0884C0.82706 13.6358 1.18336 11.4317 1.89595 9.47621C2.60855 7.52071 3.64429 5.85523 5.0032 4.47976C6.37038 3.096 8.03172 2.03953 9.98722 1.31037C11.9427 0.581202 14.1634 0.216618 16.6491 0.216618C19.0272 0.216618 21.1236 0.589488 22.9382 1.33523C24.7528 2.08096 26.2775 3.10428 27.5121 4.40518C28.755 5.70608 29.6913 7.19756 30.321 8.87962C30.9508 10.5617 31.2656 12.339 31.2656 14.2116C31.2656 15.5208 31.1828 16.801 31.017 18.0522C30.8513 19.2951 30.5447 20.422 30.0973 21.4329C29.6581 22.4355 29.0201 23.2392 28.1832 23.8441C27.3546 24.4407 26.2775 24.7514 24.9517 24.7763C24.2474 24.8011 23.5638 24.7183 22.9009 24.5277C22.238 24.3371 21.6746 24.0305 21.2106 23.608C20.7466 23.1771 20.4648 22.6302 20.3654 21.9673H20.2163C20.0174 22.4562 19.686 22.9119 19.2219 23.3345C18.7579 23.7488 18.1655 24.0803 17.4446 24.3288C16.732 24.5691 15.9034 24.6686 14.9588 24.6271C13.9148 24.5857 12.9743 24.3496 12.1374 23.9187C11.3005 23.4878 10.5838 22.8912 9.98722 22.1289C9.39891 21.3666 8.94733 20.4634 8.63246 19.4194C8.31759 18.3754 8.16016 17.2153 8.16016 15.9393C8.16016 14.7129 8.33831 13.6151 8.6946 12.6456C9.0509 11.6678 9.53563 10.8268 10.1488 10.1225C10.7702 9.40992 11.4828 8.84647 12.2866 8.43217C13.0903 8.01787 13.9396 7.75686 14.8345 7.64915C15.7045 7.54972 16.5041 7.57457 17.2333 7.72372C17.9625 7.87287 18.5674 8.10073 19.0479 8.40731C19.5368 8.7139 19.8434 9.04948 19.9677 9.41406H20.1293V8.02202H23.1868V19.5561C23.1868 20.2107 23.3567 20.7659 23.6964 21.2216C24.0444 21.6773 24.5374 21.9052 25.1754 21.9052C25.9295 21.9052 26.5178 21.6276 26.9403 21.0724C27.3712 20.5173 27.6737 19.6638 27.8477 18.5121C28.0299 17.3603 28.1211 15.8854 28.1211 14.0874C28.1211 12.8279 27.9512 11.643 27.6115 10.5327C27.2801 9.41406 26.7871 8.40317 26.1325 7.5C25.4862 6.58854 24.6907 5.80552 23.7461 5.15092C22.8015 4.49633 21.7243 3.99088 20.5146 3.63459C19.3131 3.27829 17.9832 3.10014 16.5249 3.10014C14.5445 3.10014 12.7837 3.40672 11.2425 4.01989C9.70135 4.62476 8.40045 5.49893 7.33984 6.6424C6.28752 7.78587 5.48793 9.1572 4.94105 10.7564C4.40246 12.3473 4.13317 14.1329 4.13317 16.1133C4.13317 18.1765 4.41075 20.0077 4.96591 21.6069C5.52107 23.1978 6.34138 24.5401 7.42685 25.6339C8.51231 26.7276 9.85464 27.5562 11.4538 28.1197C13.053 28.6914 14.8967 28.9773 16.9847 28.9773C17.9128 28.9773 18.8242 28.8944 19.7191 28.7287C20.614 28.5713 21.4094 28.389 22.1055 28.1818C22.8098 27.983 23.3359 27.8214 23.6839 27.6971L24.554 30.419C24.0402 30.6593 23.3567 30.8955 22.5032 31.1275C21.658 31.3595 20.7383 31.5501 19.744 31.6992C18.7579 31.8484 17.7843 31.9229 16.8232 31.9229ZM15.6797 21.582C16.7569 21.582 17.6228 21.3666 18.2773 20.9357C18.9402 20.5049 19.4167 19.8627 19.7067 19.0092C20.005 18.1475 20.1541 17.0703 20.1541 15.7777C20.1458 14.5182 19.9843 13.5156 19.6694 12.7699C19.3628 12.0159 18.8822 11.4773 18.2276 11.1541C17.5813 10.8227 16.7486 10.657 15.7294 10.657C14.7931 10.657 13.9935 10.8848 13.3306 11.3406C12.676 11.7963 12.1747 12.4136 11.8267 13.1925C11.487 13.9714 11.313 14.8372 11.3047 15.7901C11.313 16.7927 11.4538 17.7373 11.7273 18.6239C12.009 19.5022 12.4647 20.2148 13.0945 20.7617C13.7325 21.3086 14.5942 21.582 15.6797 21.582Z" fill="#00D757"/>
</svg>
