<svg width="166" height="38" viewBox="0 0 166 38" fill="none" xmlns="http://www.w3.org/2000/svg">
<path d="M4.6621 29.1097H0L10.4755 0H15.5498L26.0253 29.1097H21.3632L13.1335 5.2875H12.906L4.6621 29.1097ZM8.607 17.7103H17.4251L18.7018 21.4058H7.3281L8.607 17.7103Z" fill="white"/>
<path d="M31.3875 29.3797C30.6105 29.3797 29.9424 29.1049 29.3834 28.5553C28.8243 27.9963 28.5448 27.3235 28.5448 26.537C28.5448 25.76 28.8243 25.0967 29.3834 24.5471C29.9424 23.988 30.6105 23.7085 31.3875 23.7085C32.1645 23.7085 32.8326 23.988 33.3916 24.5471C33.9507 25.0967 34.2302 25.76 34.2302 26.537C34.2302 27.0582 34.0976 27.5367 33.8323 27.9726C33.5764 28.399 33.2353 28.7401 32.8089 28.996C32.3825 29.2518 31.9087 29.3797 31.3875 29.3797Z" fill="#00D757"/>
<path d="M41.2969 29.1097V0H59.4478V3.78085H45.6889V11.7405H52.1988C54.3593 11.7405 56.1928 12.0911 57.6995 12.7923C59.2156 13.4935 60.3717 14.4838 61.1676 15.763C61.9731 17.0422 62.3758 18.5489 62.3758 20.283C62.3758 22.017 61.9731 23.5474 61.1676 24.874C60.3717 26.2006 59.2156 27.2382 57.6995 27.9868C56.1928 28.7354 54.3593 29.1097 52.1988 29.1097H41.2969ZM45.6889 25.4141H52.1988C53.4496 25.4141 54.5062 25.1677 55.3684 24.675C56.2402 24.1823 56.8988 23.5426 57.3442 22.7562C57.799 21.9697 58.0264 21.1263 58.0264 20.2261C58.0264 18.9184 57.5242 17.7956 56.5198 16.8575C55.5153 15.9099 54.075 15.4361 52.1988 15.4361H45.6889V25.4141Z" fill="white"/>
<path d="M65.2214 37.2968V7.27742H69.3718V10.8166H69.7271C69.9735 10.3618 70.3289 9.83589 70.7932 9.23891C71.2575 8.64194 71.9018 8.12077 72.7262 7.6754C73.5506 7.22057 74.6403 6.99315 75.9954 6.99315C77.7579 6.99315 79.3309 7.43851 80.7143 8.32924C82.0978 9.21996 83.1828 10.5039 83.9693 12.1812C84.7652 13.8584 85.1632 15.8767 85.1632 18.2362C85.1632 20.5957 84.77 22.6188 83.9835 24.3054C83.197 25.9827 82.1168 27.2761 80.7428 28.1858C79.3688 29.086 77.8005 29.5361 76.038 29.5361C74.7114 29.5361 73.6264 29.3134 72.7831 28.868C71.9492 28.4227 71.2954 27.9015 70.8216 27.3045C70.3478 26.7076 69.983 26.1769 69.7271 25.7126H69.4713V37.2968H65.2214ZM69.386 18.1936C69.386 19.7286 69.6087 21.0742 70.0541 22.2302C70.4994 23.3863 71.1438 24.2912 71.9871 24.9451C72.8305 25.5894 73.8633 25.9116 75.0857 25.9116C76.3555 25.9116 77.4168 25.5752 78.2696 24.9024C79.1224 24.2202 79.7668 23.2963 80.2026 22.1308C80.648 20.9652 80.8707 19.6528 80.8707 18.1936C80.8707 16.7532 80.6527 15.4598 80.2169 14.3132C79.7904 13.1666 79.1461 12.2617 78.2838 11.5984C77.431 10.9351 76.3649 10.6034 75.0857 10.6034C73.8539 10.6034 72.8115 10.9209 71.9587 11.5557C71.1153 12.1906 70.4757 13.0766 70.0398 14.2137C69.604 15.3508 69.386 16.6774 69.386 18.1936Z" fill="white"/>
<path d="M94.2771 29.5929C92.8936 29.5929 91.6428 29.3371 90.5246 28.8254C89.4065 28.3042 88.5205 27.5509 87.8667 26.5654C87.2223 25.5799 86.9001 24.3718 86.9001 22.9409C86.9001 21.7091 87.137 20.6952 87.6108 19.8992C88.0846 19.1032 88.7242 18.4731 89.5297 18.0088C90.3351 17.5445 91.2353 17.1939 92.2303 16.957C93.2252 16.7201 94.2392 16.54 95.272 16.4168C96.5797 16.2652 97.641 16.142 98.4559 16.0473C99.2708 15.943 99.863 15.7772 100.233 15.5498C100.602 15.3224 100.787 14.9528 100.787 14.4411V14.3416C100.787 13.1003 100.436 12.1385 99.7351 11.4563C99.0434 10.774 98.0105 10.4329 96.6365 10.4329C95.2057 10.4329 94.0781 10.7503 93.2537 11.3852C92.4388 12.0106 91.8749 12.7071 91.5622 13.4746L87.5682 12.5649C88.042 11.2383 88.7337 10.1675 89.6434 9.35262C90.5625 8.52823 91.6191 7.93125 92.813 7.56169C94.007 7.18266 95.2625 6.99315 96.5797 6.99315C97.4515 6.99315 98.3753 7.09738 99.3514 7.30585C100.337 7.50484 101.256 7.8744 102.109 8.41452C102.971 8.95464 103.677 9.72692 104.227 10.7314C104.776 11.7263 105.051 13.0198 105.051 14.6117V29.1097H100.901V26.1248H100.73C100.455 26.6744 100.043 27.2145 99.4935 27.7452C98.9439 28.2758 98.2379 28.7164 97.3756 29.067C96.5133 29.4176 95.4805 29.5929 94.2771 29.5929ZM95.2009 26.1817C96.3759 26.1817 97.3804 25.9495 98.2143 25.4852C99.0576 25.0209 99.6972 24.4144 100.133 23.6658C100.578 22.9078 100.801 22.0976 100.801 21.2353V18.421C100.65 18.5726 100.356 18.7147 99.9199 18.8474C99.4935 18.9706 99.0055 19.0795 98.4559 19.1743C97.9063 19.2596 97.3709 19.3401 96.8497 19.4159C96.3286 19.4823 95.8927 19.5391 95.5421 19.5865C94.7177 19.6907 93.9644 19.866 93.2821 20.1124C92.6093 20.3588 92.0692 20.7141 91.6617 21.1784C91.2637 21.6333 91.0648 22.2397 91.0648 22.9978C91.0648 24.0496 91.4533 24.8456 92.2303 25.3857C93.0073 25.9163 93.9975 26.1817 95.2009 26.1817Z" fill="white"/>
<path d="M122.668 7.27742V10.9446H112.903V29.1097H108.71V7.27742H122.668Z" fill="white"/>
<path d="M129.323 23.1541L138.946 7.27742H143.523V29.1097H139.358V13.2188L129.778 29.1097H125.158V7.27742H129.323V23.1541Z" fill="white"/>
<path d="M162.032 16.36V20.0413H150.206V16.36H162.032ZM151.4 7.27742V29.1097H147.235V7.27742H151.4ZM165.002 7.27742V29.1097H160.852V7.27742H165.002Z" fill="white"/>
</svg>
