<svg width="238" height="238" viewBox="0 0 238 238" fill="none" xmlns="http://www.w3.org/2000/svg">
<path d="M26.637 152.741L24.6232 153.363L24.2753 152.256C24.1773 151.872 23.9744 151.524 23.6895 151.249C23.4249 151.01 23.113 150.829 22.7741 150.718C22.4566 150.609 22.1282 150.535 21.7946 150.498L21.044 150.425L9.32709 160.806L8.60393 158.48L18.1789 150.123L5.72963 149.07L5.01562 146.773L21.8404 148.292C22.4587 148.361 23.0708 148.477 23.6712 148.64C24.253 148.81 24.7822 149.125 25.209 149.555C25.7397 150.128 26.1203 150.823 26.3166 151.578L26.637 152.741Z" fill="white"/>
<path d="M21.8154 133.097C21.996 134.184 21.9461 135.298 21.669 136.365C21.4307 137.292 20.9542 138.141 20.2867 138.827C19.6235 139.471 18.781 139.898 17.8701 140.054L17.5406 137.784C18.0971 137.669 18.6014 137.376 18.9777 136.951C19.3707 136.504 19.6446 135.966 19.7741 135.385C19.9205 134.733 19.9423 134.059 19.8382 133.399C19.7444 132.675 19.4979 131.979 19.115 131.358C18.7847 130.817 18.3131 130.377 17.7511 130.085C17.1854 129.802 16.5443 129.706 15.9203 129.811C15.2842 129.894 14.6863 130.162 14.1994 130.58C13.7124 131.023 13.3656 131.599 13.2017 132.236C12.997 133.035 12.9658 133.869 13.1101 134.68L13.3207 136.154L11.3434 136.447L11.1237 134.973C11.0322 134.322 10.8012 133.697 10.4463 133.143C10.1292 132.645 9.68314 132.244 9.15565 131.98C8.60129 131.734 7.98664 131.658 7.38896 131.76C6.81808 131.832 6.27716 132.056 5.82365 132.41C5.39852 132.757 5.08097 133.217 4.90827 133.738C4.71981 134.329 4.67586 134.957 4.78011 135.568C4.86442 136.184 5.0731 136.775 5.39342 137.308C5.67992 137.814 6.09318 138.236 6.59258 138.534C7.09058 138.832 7.6738 138.954 8.24942 138.882L8.56065 141.042C7.64283 141.162 6.71058 140.989 5.89688 140.548C5.06906 140.099 4.37197 139.443 3.87388 138.644C3.32239 137.789 2.96609 136.824 2.83035 135.816C2.64858 134.798 2.73696 133.75 3.08665 132.776C3.39685 131.934 3.92805 131.191 4.6245 130.625C5.29948 130.089 6.10511 129.741 6.95873 129.618C7.89552 129.454 8.86039 129.602 9.70489 130.039C10.5151 130.485 11.1578 131.182 11.5357 132.026H11.6821C11.6689 130.931 12.075 129.874 12.8172 129.069C13.5544 128.281 14.5465 127.778 15.6183 127.65C16.579 127.496 17.564 127.643 18.4377 128.071C19.3328 128.505 20.0995 129.164 20.662 129.985C21.2776 130.921 21.672 131.985 21.8154 133.097Z" fill="white"/>
<path d="M20.3677 123.577L1.73047 123.119L1.83116 120.831L10.1245 121.041L10.3809 111.109L2.07831 110.89L2.14239 108.638L20.7705 109.114L20.7155 111.366L12.3764 111.155L12.1292 121.096L20.4592 121.307L20.3677 123.577Z" fill="white"/>
<path d="M21.3909 104.656L20.9149 106.981L4.03516 96.5089L4.51116 94.2296L24.1462 91.2913L23.6702 93.6072L7.19323 95.8956V96.033L21.3909 104.656ZM14.4339 102.331L16.3654 92.9939L18.306 93.3692L16.3837 102.715L14.4339 102.331Z" fill="white"/>
<path d="M8.32856 86.5314L6.40625 85.8449L11.1479 72.7L13.0336 73.3773L11.0472 78.8696L26.7278 84.545L25.968 86.6687L10.3149 81.0116L8.32856 86.5314Z" fill="white"/>
<path d="M21.318 69.7797L23.8994 65.1296C24.4345 64.0983 25.1909 63.198 26.1146 62.4933C26.8809 61.9358 27.795 61.6173 28.7418 61.5779C29.7286 61.5645 30.7003 61.8209 31.552 62.3194C32.4326 62.7913 33.1743 63.4856 33.7032 64.3332C34.1906 65.1635 34.426 66.1176 34.3806 67.0794C34.3034 68.2446 33.9488 69.3745 33.3462 70.3747L29.9501 76.4804L13.6562 67.4272L14.7547 65.4591L29.291 73.5694L31.5978 69.4319C31.9816 68.7829 32.1868 68.0439 32.1928 67.2899C32.1904 66.6616 32.0192 66.0455 31.6972 65.506C31.3751 64.9666 30.914 64.5236 30.362 64.2234C29.9817 64.0111 29.5608 63.8818 29.1269 63.8439C28.693 63.8061 28.256 63.8605 27.8447 64.0037C26.8658 64.394 26.0733 65.144 25.6295 66.0999L23.0664 70.75L21.318 69.7797Z" fill="white"/>
<path d="M37.8882 34.1804L51.564 46.8493L50.0353 48.5153L37.8241 37.2012L31.4164 44.0849L43.6459 55.399L42.1081 57.0467L28.4414 44.387L37.8882 34.1804Z" fill="white"/>
<path d="M61.4145 27.4616C62.4979 28.8454 63.2439 30.4626 63.5931 32.185C63.8867 33.658 63.7598 35.1838 63.2269 36.588C62.6506 37.9646 61.714 39.1604 60.5155 40.0496C59.317 40.9388 57.901 41.4885 56.4165 41.6409C54.9188 41.7488 53.4211 41.4314 52.0958 40.7256C50.543 39.8934 49.2073 38.7082 48.1963 37.2654C47.1128 35.8817 46.3669 34.2644 46.0177 32.542C45.724 31.0691 45.8509 29.5432 46.3838 28.139C46.9601 26.7625 47.8968 25.5667 49.0953 24.6775C50.2938 23.7883 51.7098 23.2385 53.1943 23.0861C54.692 22.9773 56.19 23.2946 57.5149 24.0015C59.0678 24.8336 60.4035 26.0188 61.4145 27.4616ZM59.6569 28.7615C58.8513 27.6086 57.7971 26.6513 56.5721 25.9604C55.5812 25.4112 54.4527 25.16 53.3225 25.2373C52.2461 25.3382 51.2183 25.7331 50.3514 26.3789C49.4844 27.0247 48.8117 27.8964 48.4068 28.8988C48.0084 29.9568 47.9226 31.1071 48.1597 32.2125C48.4796 33.5882 49.1053 34.8741 49.9905 35.9747C50.7897 37.1331 51.8454 38.0917 53.0753 38.7758C54.0654 39.3277 55.1938 39.582 56.3249 39.5081C57.3997 39.4022 58.4253 39.0054 59.2914 38.3602C60.1575 37.7151 60.8314 36.846 61.2405 35.8466C61.6387 34.7853 61.7245 33.6322 61.4877 32.5237C61.1681 31.1396 60.5425 29.8447 59.6569 28.734V28.7615Z" fill="white"/>
<path d="M70.0984 38.1898L67.2698 32.313L68.3592 31.7913C68.5858 31.1689 68.7065 30.5129 68.7162 29.8507C68.721 28.8722 68.6011 27.897 68.3592 26.9489C67.9966 25.513 67.5127 24.1105 66.9129 22.7564L63.8555 15.4974L73.8332 10.6917L81.0464 25.6765L82.987 24.7611L85.7972 30.6013L83.8658 31.5167L81.916 27.4615L70.0801 33.1918L72.039 37.2561L70.0984 38.1898ZM70.7849 30.6287L79.1149 26.6102L72.7622 13.4287L66.565 16.4128L68.8443 21.8227C69.3262 22.9613 69.7449 24.1256 70.0984 25.3103C70.3933 26.2703 70.6076 27.2532 70.7392 28.2487C70.849 29.0374 70.8644 29.8364 70.7849 30.6287Z" fill="white"/>
<path d="M86.4476 25.814L81.3672 7.88157L87.427 6.16065C88.6091 5.77798 89.8692 5.70238 91.0886 5.94096C92.0773 6.16111 92.9749 6.67859 93.6608 7.42388C94.3496 8.17869 94.8514 9.0849 95.1254 10.0693C95.4224 11.0639 95.482 12.1142 95.2993 13.1359C95.1102 14.1335 94.6217 15.0499 93.8988 15.763C92.9963 16.6109 91.8892 17.2102 90.6858 17.5023L86.3469 18.7655L85.7977 16.8432L90.0725 15.6257C90.8859 15.4353 91.6363 15.038 92.2511 14.4723C92.7294 14.0128 93.0498 13.4135 93.1665 12.7606C93.2724 12.0778 93.2223 11.3799 93.02 10.7193C92.8524 10.0494 92.5399 9.42451 92.1047 8.8885C91.6681 8.39436 91.0839 8.0541 90.4387 7.91819C89.6096 7.76838 88.7561 7.83137 87.958 8.10127L84.0859 9.15396L88.6628 25.164L86.4476 25.814Z" fill="white"/>
<path d="M116.136 10.8383C116.362 12.5831 116.18 14.3567 115.605 16.0194C115.105 17.4357 114.221 18.6847 113.051 19.626C111.855 20.5202 110.441 21.077 108.956 21.238C107.471 21.399 105.971 21.1584 104.611 20.5414C103.266 19.8709 102.14 18.833 101.361 17.548C100.448 16.0332 99.9049 14.3237 99.7776 12.5592C99.552 10.8143 99.7337 9.04094 100.309 7.37812C100.805 5.96307 101.69 4.7164 102.862 3.78066C104.057 2.88368 105.472 2.32527 106.957 2.16419C108.442 2.0031 109.943 2.24529 111.302 2.86527C112.648 3.53324 113.776 4.57173 114.552 5.85858C115.464 7.37075 116.007 9.07689 116.136 10.8383ZM113.966 11.0671C113.858 9.66512 113.439 8.30479 112.739 7.0852C112.162 6.11202 111.321 5.3219 110.314 4.80589C109.336 4.3454 108.251 4.16166 107.176 4.27463C106.101 4.3876 105.078 4.79295 104.217 5.44666C103.331 6.15923 102.67 7.11294 102.313 8.19281C101.882 9.52999 101.753 10.9466 101.938 12.3395C102.046 13.7415 102.465 15.1018 103.165 16.3214C103.742 17.2946 104.583 18.0847 105.59 18.6007C106.568 19.0612 107.653 19.245 108.728 19.132C109.803 19.019 110.826 18.6137 111.687 17.96C112.572 17.2467 113.233 16.2932 113.591 15.2138C114.021 13.8763 114.149 12.4601 113.966 11.0671Z" fill="white"/>
<path d="M120.125 20.2392L121.489 1.64771L132.73 2.47155L132.583 4.46709L123.576 3.81717L123.146 9.62071L127.869 9.96855C129.031 10.0254 130.165 10.338 131.192 10.8839C132.029 11.3362 132.709 12.0321 133.142 12.8795C133.57 13.7669 133.747 14.7545 133.654 15.7355C133.605 16.7341 133.289 17.7013 132.739 18.5366C132.19 19.3383 131.416 19.9595 130.515 20.3216C129.424 20.7374 128.252 20.891 127.091 20.7701L120.125 20.2392ZM122.523 18.4084L127.238 18.7562C127.989 18.8374 128.748 18.714 129.434 18.3992C130.022 18.1439 130.529 17.7323 130.899 17.2092C131.239 16.7088 131.441 16.128 131.485 15.5249C131.519 15.0898 131.46 14.6525 131.312 14.242C131.163 13.8316 130.929 13.4576 130.624 13.1449C129.864 12.3923 128.838 11.9683 127.768 11.9641L123.045 11.6162L122.523 18.4084Z" fill="white"/>
<path d="M136.238 21.6671L140.815 3.59741L143.003 4.1558L140.971 12.202L150.601 14.6461L152.642 6.59987L154.83 7.15826L150.253 25.2188L148.065 24.6696L150.125 16.5867L140.495 14.1426L138.444 22.2255L136.238 21.6671Z" fill="white"/>
<path d="M153.785 26.601L161.3 9.54736L171.599 14.1243L170.784 15.9551L162.545 12.2935L160.001 18.0513L167.699 21.4474L166.884 23.2781L159.195 19.8821L156.641 25.6856L164.999 29.3471L164.193 31.1779L153.785 26.601Z" fill="white"/>
<path d="M167.102 32.789L177.052 17.0261L186.563 23.0402L185.492 24.7154L177.894 19.9096L174.525 25.2371L181.638 29.7225L180.567 31.416L173.463 26.9306L170.077 32.2856L177.802 37.1646L176.731 38.858L167.102 32.789Z" fill="white"/>
<path d="M209.176 79.4463L211.153 78.6957L211.565 79.785C211.697 80.1423 211.921 80.4582 212.215 80.7004C212.482 80.9236 212.794 81.086 213.13 81.1764C213.456 81.2676 213.79 81.3198 214.128 81.332H214.879L225.918 70.3108L226.779 72.5901L217.79 81.4693L230.285 81.7348L231.136 83.9866L214.247 83.5198C213.631 83.4896 213.019 83.41 212.416 83.2818C211.826 83.1529 211.277 82.8756 210.823 82.4763C210.274 81.942 209.863 81.2824 209.624 80.5539L209.176 79.4463Z" fill="white"/>
<path d="M215.227 98.7516C215.003 97.6738 215.003 96.5615 215.227 95.4837C215.425 94.5473 215.86 93.6774 216.49 92.9572C217.119 92.2741 217.938 91.7957 218.842 91.5842L219.282 93.836C218.731 93.988 218.242 94.308 217.881 94.7514C217.513 95.2175 217.268 95.7682 217.167 96.3533C217.044 97.0097 217.044 97.6833 217.167 98.3397C217.295 99.0593 217.576 99.7431 217.991 100.344C218.344 100.87 218.835 101.288 219.41 101.553C219.985 101.809 220.627 101.873 221.241 101.736C221.883 101.627 222.477 101.324 222.942 100.867C223.407 100.411 223.72 99.8223 223.84 99.1818C224.014 98.3764 224.014 97.5432 223.84 96.7378L223.557 95.2732L225.516 94.8887L225.808 96.3533C225.928 97.0125 226.19 97.6374 226.577 98.1841C226.922 98.6644 227.395 99.0386 227.941 99.2642C228.503 99.4861 229.119 99.534 229.708 99.4015C230.279 99.3057 230.812 99.052 231.246 98.6692C231.653 98.306 231.946 97.8321 232.088 97.3053C232.251 96.7078 232.267 96.0795 232.134 95.4745C232.015 94.8642 231.779 94.2828 231.438 93.7628C231.121 93.2732 230.687 92.8705 230.175 92.5911C229.662 92.3263 229.078 92.2333 228.509 92.3256L228.079 90.1836C228.996 90.0267 229.939 90.1578 230.779 90.5589C231.625 90.9798 232.35 91.61 232.884 92.3897C233.475 93.2074 233.878 94.1449 234.065 95.1358C234.29 96.1446 234.253 97.1942 233.955 98.1841C233.688 99.0406 233.195 99.8092 232.527 100.408C231.878 100.981 231.088 101.369 230.239 101.534C229.316 101.738 228.352 101.636 227.493 101.241C226.653 100.843 225.971 100.176 225.552 99.3466H225.406C225.484 100.426 225.158 101.497 224.49 102.349C223.787 103.174 222.814 103.722 221.744 103.896C220.792 104.094 219.801 103.995 218.906 103.612C217.995 103.212 217.203 102.581 216.609 101.782C215.922 100.891 215.449 99.8543 215.227 98.7516Z" fill="white"/>
<path d="M217.258 108.125L235.886 107.42L235.968 109.672L227.675 109.993L228.05 119.925L236.353 119.604L236.435 121.865L217.807 122.57L217.725 120.318L226.055 119.998L225.679 110.066L217.34 110.386L217.258 108.125Z" fill="white"/>
<path d="M217.442 127.092L217.771 124.749L235.255 134.113L234.935 136.42L215.52 140.612L215.849 138.269L232.161 134.937V134.79L217.442 127.092ZM224.527 128.923L223.2 138.369L221.222 138.086L222.55 128.639L224.527 128.923Z" fill="white"/>
<path d="M231.594 144.365L233.516 144.924L229.644 158.361L227.722 157.794L229.36 152.173L213.387 147.523L214.018 145.354L229.992 150.004L231.594 144.365Z" fill="white"/>
<path d="M219.691 161.886L217.411 166.692C216.939 167.747 216.239 168.685 215.361 169.438C214.635 170.051 213.742 170.434 212.798 170.536C211.816 170.614 210.831 170.421 209.951 169.978C209.037 169.567 208.25 168.919 207.672 168.101C207.122 167.291 206.825 166.335 206.82 165.355C206.826 164.189 207.109 163.041 207.644 162.005L210.647 155.689L227.481 163.707L226.51 165.74L211.452 158.609L209.42 162.884C209.074 163.556 208.913 164.307 208.953 165.062C208.988 165.718 209.204 166.352 209.576 166.893C209.919 167.393 210.39 167.791 210.94 168.046C211.33 168.236 211.757 168.339 212.191 168.351C212.625 168.362 213.057 168.28 213.457 168.11C214.433 167.671 215.201 166.871 215.599 165.877L217.887 161.071L219.691 161.886Z" fill="white"/>
<path d="M205.414 198.483L190.969 186.739L192.397 184.99L205.285 195.508L211.226 188.231L198.328 177.704L199.756 175.955L214.201 187.709L205.414 198.483Z" fill="white"/>
<path d="M182.38 206.685C181.212 205.37 180.363 203.804 179.899 202.108C179.52 200.657 179.552 199.13 179.991 197.696C180.477 196.282 181.336 195.026 182.477 194.059C183.617 193.092 184.997 192.451 186.472 192.203C187.958 192.006 189.471 192.228 190.838 192.844C192.414 193.617 193.812 194.707 194.946 196.046C196.081 197.385 196.926 198.944 197.429 200.625C197.808 202.079 197.776 203.609 197.337 205.046C197 206.117 196.439 207.104 195.692 207.942C194.945 208.78 194.028 209.449 193.002 209.906C191.977 210.363 190.866 210.597 189.743 210.593C188.621 210.588 187.512 210.345 186.49 209.879C184.892 209.146 183.485 208.053 182.38 206.685ZM184.046 205.275C184.923 206.376 186.037 207.264 187.305 207.875C188.327 208.362 189.468 208.543 190.591 208.397C191.657 208.226 192.656 207.768 193.481 207.071C194.305 206.374 194.923 205.465 195.269 204.442C195.586 203.354 195.586 202.198 195.269 201.11C194.4 198.414 192.502 196.17 189.987 194.867C188.963 194.387 187.822 194.209 186.701 194.355C185.63 194.506 184.625 194.964 183.808 195.673C182.958 196.358 182.323 197.273 181.977 198.309C181.66 199.397 181.66 200.553 181.977 201.641C182.387 202.991 183.094 204.233 184.046 205.275Z" fill="white"/>
<path d="M173.006 196.506L176.201 202.19L175.157 202.776C174.968 203.414 174.888 204.079 174.919 204.744C174.975 205.721 175.156 206.688 175.459 207.618C175.914 209.028 176.487 210.397 177.171 211.71L180.686 218.759L171.038 224.187L162.937 209.687L161.106 210.74L157.93 205.092L159.76 204.039L161.957 207.939L173.409 201.531L171.194 197.595L173.006 196.506ZM172.805 204.103L164.749 208.634L171.926 221.386L177.922 218.017L175.304 212.763C174.746 211.658 174.254 210.521 173.83 209.358C173.476 208.418 173.2 207.45 173.006 206.465C172.854 205.697 172.793 204.913 172.823 204.131L172.805 204.103Z" fill="white"/>
<path d="M157.491 209.898L163.697 227.482L157.756 229.578C156.594 230.038 155.333 230.192 154.094 230.027C153.095 229.871 152.168 229.411 151.44 228.709C150.698 227.988 150.139 227.099 149.811 226.118C149.454 225.148 149.328 224.107 149.444 223.079C149.561 222.059 149.989 221.1 150.671 220.333C151.52 219.429 152.589 218.76 153.774 218.392L158.031 216.891L158.699 218.777L154.506 220.26C153.707 220.5 152.984 220.945 152.41 221.551C151.966 222.041 151.69 222.66 151.623 223.317C151.563 224.007 151.66 224.702 151.907 225.349C152.123 226.003 152.483 226.6 152.959 227.098C153.424 227.564 154.028 227.866 154.68 227.958C155.516 228.059 156.363 227.946 157.143 227.629L160.887 226.311L155.394 210.621L157.491 209.898Z" fill="white"/>
<path d="M128.811 226.695C128.48 224.969 128.549 223.191 129.013 221.496C129.426 220.051 130.234 218.751 131.347 217.743C132.475 216.763 133.86 216.128 135.338 215.912C136.81 215.644 138.327 215.8 139.714 216.36C141.092 216.937 142.281 217.889 143.146 219.106C144.108 220.577 144.755 222.231 145.047 223.964C145.338 225.697 145.268 227.471 144.84 229.176C144.428 230.62 143.619 231.921 142.506 232.929C141.367 233.892 139.99 234.531 138.52 234.779C137.05 235.027 135.539 234.875 134.148 234.338C132.767 233.767 131.576 232.814 130.715 231.592C129.706 230.132 129.053 228.454 128.811 226.695ZM130.972 226.338C131.16 227.73 131.664 229.061 132.445 230.228C133.075 231.17 133.966 231.908 135.009 232.352C136.012 232.753 137.106 232.87 138.172 232.69C139.237 232.511 140.233 232.043 141.05 231.336C141.883 230.57 142.48 229.583 142.771 228.489C143.124 227.128 143.165 225.704 142.89 224.324C142.696 222.931 142.192 221.598 141.416 220.425C140.778 219.487 139.886 218.75 138.844 218.301C137.844 217.892 136.749 217.778 135.686 217.971C134.617 218.135 133.618 218.605 132.812 219.326C131.974 220.089 131.373 221.078 131.082 222.173C130.728 223.535 130.69 224.959 130.972 226.338Z" fill="white"/>
<path d="M124.219 217.569L124.036 236.215L112.786 236.105V234.1L121.784 234.192L121.839 228.361L117.106 228.315C115.943 228.343 114.789 228.108 113.728 227.629C112.868 227.241 112.143 226.603 111.651 225.798C111.168 224.938 110.931 223.963 110.964 222.978C110.951 221.98 111.207 220.997 111.705 220.132C112.204 219.295 112.94 218.626 113.82 218.209C114.881 217.724 116.041 217.496 117.207 217.541L124.219 217.569ZM121.939 219.518L117.207 219.473C116.453 219.441 115.704 219.611 115.037 219.967C114.475 220.275 114.007 220.731 113.683 221.285C113.373 221.806 113.209 222.4 113.207 223.006C113.202 223.441 113.289 223.872 113.462 224.272C113.636 224.671 113.892 225.029 114.214 225.322C115.026 226.018 116.075 226.376 117.143 226.32H121.875L121.939 219.518Z" fill="white"/>
<path d="M108.089 217.184L104.665 235.492L102.441 235.08L103.969 226.924L94.1931 225.093L92.6736 233.249L90.4492 232.837L93.8819 214.53L96.0971 214.951L94.5684 223.143L104.336 224.974L105.864 216.736L108.089 217.184Z" fill="white"/>
<path d="M90.2577 213.367L83.85 230.869L73.2773 227.015L73.9639 225.139L82.3854 228.205L84.5549 222.292L76.6643 219.399L77.3508 217.514L85.2506 220.416L87.4292 214.466L78.852 211.317L79.5477 209.486L90.2577 213.367Z" fill="white"/>
<path d="M76.5625 208.03L67.61 224.379L57.7422 218.978L58.6576 217.221L66.594 221.523L69.6147 216.031L62.2459 211.976L63.1613 210.218L70.5393 214.255L73.615 208.708L65.5962 204.323L66.5116 202.565L76.5625 208.03Z" fill="white"/>
<path d="M201.063 55.1428C203.641 55.1428 205.731 53.0527 205.731 50.4744C205.731 47.896 203.641 45.8059 201.063 45.8059C198.485 45.8059 196.395 47.896 196.395 50.4744C196.395 53.0527 198.485 55.1428 201.063 55.1428Z" fill="white"/>
<path d="M35.2231 189.988C37.8015 189.988 39.8916 187.898 39.8916 185.32C39.8916 182.741 37.8015 180.651 35.2231 180.651C32.6448 180.651 30.5547 182.741 30.5547 185.32C30.5547 187.898 32.6448 189.988 35.2231 189.988Z" fill="white"/>
</svg>
