<svg width="238" height="238" viewBox="0 0 238 238" fill="none" xmlns="http://www.w3.org/2000/svg">
<g id="&#208;&#186; &#209;&#129;&#208;&#190;&#209;&#130;&#209;&#128;&#209;&#131;&#208;&#180;&#208;&#189;&#208;&#184;&#209;&#135;&#208;&#181;&#209;&#129;&#209;&#130;&#208;&#178;&#209;&#131;-02" clip-path="url(#clip0_381_43)">
<path id="Vector" d="M65.6002 36.1998L54.4102 32.7298L52.4102 34.2098L57.9102 41.7998L55.9102 43.2498L43.9102 26.7098L45.9102 25.2598L51.1102 32.4298L52.0002 31.7998L53.4302 19.7998L55.8202 18.0698L54.3602 30.2098L68.0002 34.4698L65.6002 36.1998Z" fill="white"/>
<path id="Vector_2" d="M87.0516 10.82L84.7416 11.71C84.3834 11.1307 83.9145 10.6278 83.3616 10.23C82.8411 9.86207 82.2584 9.59106 81.6416 9.43C81.0256 9.26775 80.3867 9.21029 79.7516 9.26C79.0907 9.31451 78.4409 9.46265 77.8216 9.7C76.702 10.1093 75.7233 10.8311 75.0016 11.78C74.269 12.7805 73.8418 13.9719 73.7716 15.21C73.684 16.749 73.9473 18.2877 74.5416 19.71C75.0613 21.168 75.9021 22.4906 77.0016 23.58C77.8831 24.4458 78.9932 25.0425 80.2016 25.3C81.3631 25.5348 82.5677 25.4306 83.6716 25C84.2937 24.7521 84.8764 24.4153 85.4016 24C85.9097 23.6127 86.3491 23.1428 86.7016 22.61C87.0549 22.0777 87.3059 21.4843 87.4416 20.86C87.5698 20.1995 87.5698 19.5205 87.4416 18.86L89.7916 18C89.9931 18.9881 90.0134 20.0046 89.8516 21C89.6808 21.927 89.3419 22.8149 88.8516 23.62C88.3708 24.4199 87.755 25.1304 87.0316 25.72C86.2587 26.3358 85.3952 26.8283 84.4716 27.18C82.9494 27.7918 81.2837 27.9549 79.6716 27.65C78.0608 27.32 76.5767 26.5398 75.3916 25.4C74.0019 24.0664 72.9437 22.4259 72.3016 20.61C71.5642 18.8263 71.2526 16.8952 71.3916 14.97C71.5215 13.3319 72.1069 11.7628 73.0816 10.44C74.0787 9.11292 75.4409 8.10516 77.0016 7.54C77.9194 7.18267 78.8882 6.97339 79.8716 6.92C80.8085 6.86956 81.7468 6.98811 82.6416 7.27C83.5349 7.54762 84.369 7.9884 85.1016 8.57C85.8827 9.19553 86.5435 9.95795 87.0516 10.82Z" fill="white"/>
<path id="Vector_3" d="M110.42 10.3301C110.779 12.2239 110.693 14.1749 110.17 16.0301C109.712 17.6119 108.818 19.0327 107.59 20.1301C106.339 21.1831 104.825 21.8776 103.211 22.1399C101.596 22.4022 99.941 22.2226 98.4204 21.6201C96.9089 20.9706 95.6098 19.9105 94.6704 18.5601C93.6036 16.9604 92.9193 15.1367 92.6704 13.2301C92.3154 11.3355 92.4043 9.38444 92.9304 7.53007C93.3851 5.94921 94.2758 4.52833 95.5004 3.43007C96.7536 2.37621 98.2686 1.68125 99.8849 1.41892C101.501 1.15659 103.158 1.33668 104.68 1.94007C106.171 2.59759 107.448 3.65718 108.37 5.00007C109.455 6.59526 110.156 8.41929 110.42 10.3301ZM108.06 10.7101C107.854 9.18638 107.311 7.72777 106.47 6.44007C105.781 5.40539 104.809 4.58991 103.67 4.09007C102.576 3.63778 101.376 3.50598 100.21 3.71007C99.0234 3.88178 97.9099 4.38823 97.0004 5.17007C96.0818 6.00706 95.4224 7.08983 95.1004 8.29007C94.7187 9.78242 94.6845 11.3424 95.0004 12.8501C95.1975 14.3761 95.7414 15.8368 96.5904 17.1201C97.2776 18.157 98.25 18.9731 99.3904 19.4701C100.486 19.9069 101.681 20.0372 102.845 19.847C104.01 19.6567 105.1 19.1531 106 18.3901C106.92 17.556 107.582 16.4772 107.91 15.2801C108.298 13.7867 108.35 12.2257 108.06 10.7101Z" fill="white"/>
<path id="Vector_4" d="M113.82 2.21L113.87 0L129.18 0.33L129.13 2.53L122.71 2.39L122.32 20.61L119.84 20.56L120.24 2.33L113.82 2.21Z" fill="white"/>
<path id="Vector_5" d="M131.738 21.21L135.738 1.20996L142.508 2.53996C143.856 2.74983 145.127 3.30441 146.198 4.14996C147.06 4.8536 147.682 5.80754 147.978 6.87996C148.269 7.97428 148.3 9.12159 148.068 10.23C147.867 11.3504 147.401 12.4064 146.708 13.31C146.016 14.1832 145.069 14.8192 143.998 15.13C142.697 15.5152 141.317 15.5497 139.998 15.23L135.148 14.23L135.568 12.08L140.348 13.02C141.233 13.2544 142.164 13.2544 143.048 13.02C143.736 12.8001 144.338 12.3699 144.768 11.79C145.205 11.1711 145.502 10.4648 145.638 9.71996C145.804 8.98248 145.804 8.21744 145.638 7.47996C145.463 6.77798 145.063 6.15275 144.498 5.69996C143.765 5.14544 142.906 4.78124 141.998 4.63996L137.698 3.79996L134.168 21.69L131.738 21.21Z" fill="white"/>
<path id="Vector_6" d="M149.281 25.5102L150.111 23.3502L151.301 23.8102C151.703 23.9744 152.14 24.033 152.571 23.9802C152.946 23.9237 153.304 23.7873 153.621 23.5802C153.928 23.3771 154.213 23.1425 154.471 22.8802L155.041 22.2902L154.001 5.16016L156.491 6.16016L157.251 20.0002L166.591 10.0002L169.051 10.9402L156.341 24.3702C155.869 24.8479 155.361 25.2892 154.821 25.6902C154.281 26.0704 153.656 26.314 153.001 26.4002C152.149 26.4652 151.295 26.321 150.511 25.9802L149.281 25.5102Z" fill="white"/>
<path id="Vector_7" d="M159.738 34.2899L163.478 28.2099L164.598 28.8999C165.305 28.7366 165.98 28.4596 166.598 28.0799C167.505 27.5233 168.335 26.851 169.068 26.0799C170.173 24.8927 171.177 23.6148 172.068 22.2599L176.998 15.1099L187.328 21.4699L177.748 36.9999L179.748 38.2299L175.998 44.2799L173.998 42.9999L176.578 38.8199L164.318 31.2699L161.718 35.4799L159.738 34.2899ZM167.118 30.4499L175.738 35.7599L184.158 22.1099L177.738 18.1099L174.098 23.4099C173.332 24.5312 172.504 25.6095 171.618 26.6399C170.907 27.4915 170.124 28.281 169.278 28.9999C168.619 29.5678 167.894 30.0547 167.118 30.4499Z" fill="white"/>
<path id="Vector_8" d="M180.77 41.9401L194.77 27.0801L196.57 28.7801L190.33 35.3901L198.25 42.8701L204.49 36.2501L206.29 37.9501L192.29 52.8101L190.49 51.1101L196.76 44.4701L188.84 37.0001L182.57 43.6401L180.77 41.9401Z" fill="white"/>
<path id="Vector_9" d="M211.662 44.1201L213.052 46.1201L199.882 55.3401L200.002 55.5001L219.572 55.4301L220.952 57.4301L204.212 69.1101L202.792 67.1101L215.932 57.9101L215.822 57.7501L196.302 57.8301L194.922 55.8301L211.662 44.1201Z" fill="white"/>
<path id="Vector_10" d="M229.93 75.9999L230.93 78.2699L212.23 86.4699L211.23 84.2099L229.93 75.9999ZM224.93 64.6099L225.93 66.8699L219.69 69.6099C218.904 69.8972 218.212 70.3954 217.69 71.0499C217.303 71.5888 217.122 72.2488 217.18 72.9099C217.245 73.682 217.445 74.4368 217.77 75.1399C217.99 75.6499 218.22 76.1399 218.47 76.5899C218.72 77.0399 218.98 77.4799 219.25 77.9099C219.52 78.3399 219.81 78.7299 220.1 79.1199C220.39 79.5099 220.7 79.8899 221.01 80.2499L219.01 81.1499C218.7 80.7999 218.41 80.4499 218.13 80.0899C217.85 79.7299 217.58 79.3599 217.32 78.9699C217.06 78.5799 216.8 78.1299 216.54 77.6599C216.28 77.1899 216.03 76.6599 215.76 76.0399C215.242 74.9158 214.937 73.7053 214.86 72.4699C214.808 71.424 215.111 70.3912 215.72 69.5399C216.506 68.5519 217.542 67.7922 218.72 67.3399L224.93 64.6099Z" fill="white"/>
<path id="Vector_11" d="M213.391 90.4302L233.261 85.7002L236.111 97.7002L234.001 98.2002L231.721 88.6202L225.001 90.2102L227.141 99.2102L225.001 99.7202L222.871 90.7202L216.111 92.3302L218.431 102.07L216.301 102.58L213.391 90.4302Z" fill="white"/>
<path id="Vector_12" d="M231.758 121.69L231.628 119.22C232.289 119.057 232.911 118.765 233.458 118.36C233.971 117.978 234.411 117.507 234.758 116.97C235.098 116.431 235.348 115.84 235.498 115.22C235.654 114.566 235.711 113.892 235.668 113.22C235.624 112.036 235.238 110.89 234.558 109.92C233.835 108.911 232.834 108.133 231.678 107.68C228.753 106.651 225.54 106.82 222.738 108.15C221.631 108.719 220.714 109.598 220.098 110.68C219.528 111.719 219.264 112.898 219.338 114.08C219.372 114.738 219.5 115.388 219.718 116.01C219.932 116.613 220.243 117.177 220.638 117.68C221.041 118.176 221.529 118.596 222.078 118.92C222.661 119.267 223.307 119.495 223.978 119.59L224.108 122.06C223.115 121.938 222.151 121.643 221.258 121.19C220.428 120.754 219.685 120.167 219.068 119.46C218.451 118.758 217.964 117.953 217.628 117.08C217.272 116.16 217.069 115.187 217.028 114.2C216.905 112.567 217.252 110.932 218.028 109.49C218.84 108.057 220.039 106.882 221.488 106.1C223.191 105.195 225.081 104.696 227.008 104.64C228.928 104.491 230.856 104.792 232.638 105.52C234.161 106.145 235.477 107.184 236.438 108.52C237.371 109.871 237.899 111.46 237.958 113.1C238.013 114.087 237.912 115.075 237.658 116.03C237.414 116.932 237.014 117.785 236.478 118.55C235.938 119.315 235.26 119.973 234.478 120.49C233.655 121.057 232.732 121.464 231.758 121.69Z" fill="white"/>
<path id="Vector_13" d="M235.63 126.86L237.8 127.15L235.8 142.33L233.62 142.04L234.48 135.68L216.41 133.25L216.74 130.79L234.81 133.22L235.63 126.86Z" fill="white"/>
<path id="Vector_14" d="M214.76 142.56L234.22 148.77L232.05 155.58C231.725 156.752 231.117 157.827 230.28 158.71C229.601 159.404 228.731 159.881 227.78 160.08C226.847 160.259 225.883 160.197 224.98 159.9C224.253 159.694 223.587 159.313 223.04 158.79C222.61 158.35 222.294 157.811 222.12 157.22C221.959 156.641 221.891 156.04 221.92 155.44L221.73 155.38C221.47 156.005 221.057 156.555 220.53 156.98C219.916 157.482 219.188 157.825 218.41 157.98C217.473 158.151 216.507 158.072 215.61 157.75C214.687 157.47 213.852 156.953 213.19 156.25C212.525 155.499 212.112 154.558 212.01 153.56C211.881 152.205 212.055 150.839 212.52 149.56L214.76 142.56ZM216.1 145.56L214.61 150.23C214.128 151.362 214.075 152.631 214.46 153.8C214.633 154.197 214.89 154.552 215.213 154.84C215.535 155.128 215.917 155.343 216.33 155.47C216.976 155.683 217.669 155.711 218.33 155.55C219.009 155.384 219.631 155.039 220.13 154.55C220.692 153.991 221.111 153.305 221.35 152.55L222.87 147.76L216.1 145.56ZM224.92 148.37L223.52 152.74C223.296 153.402 223.231 154.108 223.33 154.8C223.412 155.437 223.668 156.039 224.07 156.54C224.49 157.054 225.055 157.43 225.69 157.62C226.093 157.759 226.52 157.813 226.945 157.781C227.37 157.748 227.783 157.629 228.16 157.43C228.613 157.144 229.006 156.772 229.314 156.334C229.623 155.897 229.843 155.403 229.96 154.88L231.38 150.43L224.92 148.37Z" fill="white"/>
<path id="Vector_15" d="M208.341 159.88L210.341 160.95L209.751 162.08C209.544 162.461 209.434 162.886 209.431 163.32C209.448 163.699 209.544 164.07 209.711 164.41C209.875 164.74 210.072 165.052 210.301 165.34L210.831 165.97L228.001 167L226.761 169.37L212.911 168.48L221.771 178.92L220.551 181.25L208.661 167C208.243 166.476 207.865 165.921 207.531 165.34C207.209 164.758 207.037 164.105 207.031 163.44C207.062 162.591 207.303 161.763 207.731 161.03L208.341 159.88Z" fill="white"/>
<path id="Vector_16" d="M170.879 202.73L181.999 206.41L184.069 204.97L178.709 197.28L180.709 195.86L192.379 212.63L190.379 214.04L185.319 206.77L184.439 207.39L182.779 219.33L180.359 221L181.999 208.93L168.449 204.41L170.879 202.73Z" fill="white"/>
<path id="Vector_17" d="M148.999 227.69L151.329 226.85C151.678 227.434 152.137 227.947 152.679 228.36C153.195 228.735 153.774 229.016 154.389 229.19C155.003 229.362 155.642 229.43 156.279 229.39C156.938 229.349 157.588 229.215 158.209 228.99C159.326 228.607 160.311 227.913 161.049 226.99C161.799 226.001 162.25 224.817 162.349 223.58C162.461 222.044 162.225 220.502 161.659 219.07C161.184 217.604 160.38 216.267 159.309 215.16C158.445 214.267 157.34 213.645 156.129 213.37C154.968 213.117 153.759 213.207 152.649 213.63C152.027 213.85 151.44 214.16 150.909 214.55C150.395 214.933 149.946 215.395 149.579 215.92C149.224 216.448 148.964 217.033 148.809 217.65C148.653 218.305 148.626 218.984 148.729 219.65L146.399 220.49C146.211 219.499 146.211 218.481 146.399 217.49C146.568 216.569 146.907 215.687 147.399 214.89C147.893 214.093 148.526 213.392 149.269 212.82C150.047 212.214 150.918 211.738 151.849 211.41C153.379 210.826 155.045 210.695 156.649 211.03C158.255 211.393 159.728 212.201 160.899 213.36C162.22 214.754 163.238 216.407 163.891 218.214C164.543 220.021 164.814 221.943 164.689 223.86C164.531 225.501 163.914 227.064 162.909 228.37C161.892 229.653 160.528 230.618 158.979 231.15C158.051 231.489 157.076 231.678 156.089 231.71C154.202 231.776 152.355 231.158 150.889 229.97C150.128 229.328 149.488 228.556 148.999 227.69Z" fill="white"/>
<path id="Vector_18" d="M125.59 227.74C125.274 225.821 125.415 223.855 126 222C126.498 220.448 127.415 219.063 128.65 218C129.912 216.953 131.445 216.287 133.07 216.08C134.688 215.816 136.348 216.024 137.85 216.68C139.35 217.361 140.628 218.449 141.54 219.82C142.554 221.454 143.218 223.281 143.49 225.184C143.762 227.088 143.636 229.027 143.12 230.88C142.627 232.434 141.709 233.819 140.47 234.88C139.196 235.905 137.67 236.568 136.051 236.8C134.433 237.032 132.781 236.825 131.27 236.2C129.773 235.516 128.495 234.429 127.58 233.06C126.514 231.465 125.833 229.643 125.59 227.74ZM127.96 227.4C128.13 228.929 128.647 230.4 129.47 231.7C130.135 232.75 131.091 233.583 132.22 234.1C133.309 234.561 134.502 234.717 135.673 234.549C136.843 234.382 137.945 233.898 138.86 233.15C139.809 232.337 140.504 231.268 140.86 230.07C141.621 227.065 141.165 223.88 139.59 221.21C138.918 220.167 137.965 219.335 136.84 218.81C135.747 218.351 134.548 218.202 133.375 218.378C132.202 218.554 131.101 219.05 130.19 219.81C129.242 220.619 128.547 221.685 128.19 222.88C127.787 224.353 127.722 225.898 128 227.4H127.96Z" fill="white"/>
<path id="Vector_19" d="M122.059 235.79L121.999 238L106.699 237.38L106.779 235.19L113.199 235.45L113.939 217.23L116.409 217.33L115.669 235.55L122.059 235.79Z" fill="white"/>
<path id="Vector_20" d="M104.511 216.46L100.181 236.46L93.4307 235C92.0875 234.761 90.8275 234.183 89.7707 233.32C88.9267 232.603 88.3257 231.643 88.0508 230.57C87.78 229.466 87.78 228.314 88.0508 227.21C88.281 226.114 88.7638 225.087 89.4607 224.21C90.159 223.348 91.0993 222.714 92.1608 222.39C93.4716 222.044 94.8499 222.044 96.1608 222.39L101.001 223.44L100.531 225.58L95.7707 224.58C94.8857 224.348 93.9558 224.348 93.0707 224.58C92.3777 224.784 91.768 225.205 91.3308 225.78C90.8761 226.386 90.5649 227.087 90.4207 227.83C90.2564 228.568 90.2564 229.332 90.4207 230.07C90.5887 230.773 90.9777 231.404 91.5307 231.87C92.2563 232.438 93.1122 232.816 94.0207 232.97L98.2807 233.9L102.141 216.08L104.511 216.46Z" fill="white"/>
<path id="Vector_21" d="M87.0491 211.83L86.1791 214L84.9991 213.5C84.6078 213.323 84.1761 213.254 83.7491 213.3C83.3722 213.348 83.0104 213.478 82.6891 213.68C82.3763 213.876 82.0848 214.104 81.8191 214.36L81.2391 214.94L81.9291 232.09L79.4491 231.09L78.9991 217.22L69.4791 227.05L67.0391 226.05L80.0391 212.82C80.5222 212.351 81.0404 211.92 81.5891 211.53C82.1324 211.154 82.7617 210.92 83.4191 210.85C84.2686 210.8 85.1172 210.962 85.8891 211.32L87.0491 211.83Z" fill="white"/>
<path id="Vector_22" d="M76.7288 202.84L72.8688 208.84L71.7588 208.13C71.0524 208.274 70.3759 208.537 69.7588 208.91C68.8395 209.466 67.9959 210.138 67.2487 210.91C66.1214 212.077 65.0913 213.335 64.1687 214.67L59.1687 221.67L48.9688 215.11L58.8187 199.77L56.8187 198.5L60.6587 192.5L62.6587 193.78L59.9987 197.94L72.1188 205.73L74.7887 201.57L76.7288 202.84ZM69.2787 206.54L60.7487 201.06L52.0788 214.55L58.4187 218.63L62.1687 213.4C62.9541 212.296 63.8022 211.237 64.7087 210.23C65.4387 209.425 66.2312 208.68 67.0788 208C67.7535 207.43 68.4917 206.941 69.2787 206.54Z" fill="white"/>
<path id="Vector_23" d="M55.8605 194.81L41.5605 209.39L39.7905 207.66L46.1605 201.16L38.3805 193.54L32.0005 200L30.2305 198.27L44.5305 183.69L46.3005 185.42L39.9205 192L47.7005 199.63L54.0905 193.1L55.8605 194.81Z" fill="white"/>
<path id="Vector_24" d="M24.9987 192L23.6387 190L36.9987 181L36.8887 180.84L17.3087 180.54L15.9688 178.54L32.9688 167.14L34.3587 169.2L20.9987 178.19L21.1088 178.36L40.6287 178.65L41.9587 180.65L24.9987 192Z" fill="white"/>
<path id="Vector_25" d="M7.33984 159.77L6.33984 157.48L25.1998 149.64L26.1498 151.93L7.33984 159.77ZM12.1198 171.26L11.1698 169L17.4698 166.38C18.2509 166.103 18.9421 165.619 19.4698 164.98C19.8628 164.446 20.0572 163.792 20.0198 163.13C19.9708 162.354 19.7846 161.592 19.4698 160.88C19.2598 160.37 19.0398 159.88 18.7998 159.43C18.5598 158.98 18.3098 158.52 18.0398 158.09C17.7698 157.66 17.4998 157.25 17.2198 156.86C16.9398 156.47 16.6298 156.08 16.3298 155.71L18.3898 154.85C18.6898 155.21 18.9798 155.57 19.2498 155.93C19.5198 156.29 19.7798 156.67 20.0398 157.07C20.2998 157.47 20.5398 157.91 20.7898 158.39C21.0398 158.87 21.2798 159.39 21.5398 160.02C22.0424 161.153 22.3241 162.372 22.3698 163.61C22.404 164.66 22.0795 165.69 21.4498 166.53C20.6577 167.495 19.6219 168.23 18.4498 168.66L12.1198 171.26Z" fill="white"/>
<path id="Vector_26" d="M24.1581 145.68L4.19812 150L1.57812 138L3.71812 137.53L5.81813 147.16L12.5581 145.69L10.5581 136.69L12.7081 136.22L14.7081 145.22L21.4881 143.74L19.3581 133.95L21.4981 133.49L24.1581 145.68Z" fill="white"/>
<path id="Vector_27" d="M6.39123 114.11L6.47123 116.58C5.17468 116.875 4.04236 117.659 3.31123 118.77C2.9557 119.302 2.69204 119.89 2.53123 120.51C2.36615 121.163 2.29544 121.837 2.32123 122.51C2.34634 123.694 2.71076 124.846 3.37123 125.83C4.07567 126.853 5.06244 127.648 6.21123 128.12C7.63657 128.701 9.1753 128.951 10.7112 128.85C12.2514 128.86 13.7734 128.518 15.1612 127.85C16.2734 127.301 17.2039 126.444 17.8412 125.38C18.4347 124.352 18.7226 123.176 18.6712 121.99C18.6467 121.33 18.5288 120.677 18.3212 120.05C18.1259 119.442 17.8246 118.873 17.4312 118.37C17.0526 117.821 16.566 117.355 16.0012 117C15.4253 116.641 14.7822 116.402 14.1112 116.3L14.0312 113.82C15.023 113.956 15.9819 114.271 16.8612 114.75C17.6794 115.209 18.4051 115.816 19.0012 116.54C19.6211 117.268 20.1054 118.101 20.4312 119C20.7701 119.93 20.9559 120.91 20.9812 121.9C21.0631 123.535 20.6744 125.159 19.8612 126.58C19.0229 127.995 17.803 129.146 16.3412 129.9C14.6199 130.773 12.721 131.238 10.7912 131.26C8.86597 131.362 6.94298 131.02 5.17123 130.26C3.66317 129.604 2.37043 128.537 1.44123 127.18C0.519763 125.81 0.0192005 124.201 0.00122803 122.55C-0.0429966 121.564 0.0752483 120.577 0.351228 119.63C0.610754 118.727 1.02711 117.878 1.58123 117.12C2.12503 116.369 2.80311 115.724 3.58123 115.22C4.44031 114.678 5.39343 114.301 6.39123 114.11Z" fill="white"/>
<path id="Vector_28" d="M2.63094 108.84L0.460938 108.5L2.79094 93.3599L5.00094 93.6999L4.00094 99.9999L22.0009 102.78L21.6209 105.23L3.62094 102.45L2.63094 108.84Z" fill="white"/>
<path id="Vector_29" d="M23.7814 93.5698L4.44141 86.9998L6.73141 80.2298C7.084 79.0676 7.71175 78.0076 8.56141 77.1398C9.25418 76.4554 10.1348 75.9924 11.0914 75.8098C12.03 75.6514 12.9935 75.734 13.8914 76.0498C14.6128 76.2656 15.2691 76.6573 15.8014 77.1898C16.2253 77.6378 16.5311 78.1842 16.6914 78.7798C16.8432 79.3602 16.9006 79.9612 16.8614 80.5598L17.0514 80.6198C17.3223 80.001 17.7454 79.4609 18.2814 79.0498C18.8985 78.5405 19.6348 78.1964 20.4214 78.0498C21.3599 77.8973 22.322 77.9938 23.2114 78.3298C24.1324 78.6233 24.9578 79.1585 25.6014 79.8798C26.2548 80.6411 26.6504 81.5898 26.7314 82.5898C26.831 83.9299 26.6329 85.2753 26.1514 86.5298L23.7814 93.5698ZM13.7814 87.5698L15.2614 83.2298C15.4895 82.5894 15.5682 81.9053 15.4914 81.2298C15.4203 80.5892 15.1747 79.9804 14.7814 79.4698C14.3732 78.9459 13.8151 78.5587 13.1814 78.3598C12.7812 78.2151 12.3557 78.1537 11.9309 78.1795C11.5061 78.2053 11.0911 78.3177 10.7114 78.5098C9.78824 79.0702 9.12344 79.9722 8.86141 81.0198L7.36141 85.4398L13.7814 87.5698ZM22.5514 90.5698L24.1214 85.9298C24.6324 84.8077 24.7108 83.5362 24.3414 82.3598C24.1765 81.9587 23.9266 81.5982 23.609 81.303C23.2913 81.0078 22.9135 80.7849 22.5014 80.6498C21.8581 80.4268 21.1652 80.3887 20.5014 80.5398C19.8148 80.7006 19.1853 81.0465 18.6814 81.5398C18.1019 82.0897 17.6717 82.7779 17.4314 83.5398L15.8114 88.2998L22.5514 90.5698Z" fill="white"/>
<path id="Vector_30" d="M30.53 76.35L28.53 75.24L29.14 74.12C29.3627 73.7484 29.4802 73.3233 29.48 72.89C29.4731 72.5133 29.3879 72.1421 29.23 71.8C29.0774 71.4447 28.8827 71.109 28.65 70.8L28.14 70.16L11 68.9L12.29 66.55L26.12 67.71L17.46 57.1L18.72 54.79L30.35 69.2C30.7593 69.7344 31.1271 70.2994 31.45 70.89C31.7554 71.4766 31.9133 72.1287 31.91 72.79C31.8642 73.6432 31.6064 74.4715 31.16 75.2L30.53 76.35Z" fill="white"/>
<path id="Vector_31" d="M201.96 193.34C204.788 193.34 207.08 191.048 207.08 188.22C207.08 185.392 204.788 183.1 201.96 183.1C199.132 183.1 196.84 185.392 196.84 188.22C196.84 191.048 199.132 193.34 201.96 193.34Z" fill="#04B14A"/>
<path id="Vector_32" d="M35.4091 52.78C38.2368 52.78 40.5291 50.4877 40.5291 47.66C40.5291 44.8323 38.2368 42.54 35.4091 42.54C32.5814 42.54 30.2891 44.8323 30.2891 47.66C30.2891 50.4877 32.5814 52.78 35.4091 52.78Z" fill="#04B14A"/>
</g>
<defs>
<clipPath id="clip0_381_43">
<rect width="238" height="238" fill="white"/>
</clipPath>
</defs>
</svg>
