<svg width="29" height="33" viewBox="0 0 29 33" fill="none" xmlns="http://www.w3.org/2000/svg">
<path d="M15.2812 25.5455V24.0114C15.2812 22.8466 15.5275 21.7765 16.0199 20.8011C16.5218 19.8163 17.2462 19.0303 18.1932 18.4432C19.1496 17.8466 20.3144 17.5483 21.6875 17.5483C23.0795 17.5483 24.2491 17.8419 25.196 18.429C26.1525 19.0161 26.8722 19.8021 27.3551 20.7869C27.8475 21.7623 28.0938 22.8371 28.0938 24.0114V25.5455C28.0938 26.7102 27.8475 27.785 27.3551 28.7699C26.8627 29.7453 26.1383 30.5265 25.1818 31.1136C24.2254 31.7102 23.0606 32.0085 21.6875 32.0085C20.2955 32.0085 19.1259 31.7102 18.179 31.1136C17.232 30.5265 16.5123 29.7453 16.0199 28.7699C15.5275 27.785 15.2812 26.7102 15.2812 25.5455ZM19.4148 24.0114V25.5455C19.4148 26.2178 19.5758 26.8523 19.8977 27.4489C20.2292 28.0455 20.8258 28.3438 21.6875 28.3438C22.5492 28.3438 23.1364 28.0502 23.4489 27.4631C23.7708 26.8759 23.9318 26.2367 23.9318 25.5455V24.0114C23.9318 23.3201 23.7803 22.6761 23.4773 22.0795C23.1742 21.483 22.5777 21.1847 21.6875 21.1847C20.8352 21.1847 20.2434 21.483 19.9119 22.0795C19.5805 22.6761 19.4148 23.3201 19.4148 24.0114ZM0.352273 8.89773V7.36364C0.352273 6.18939 0.60322 5.11458 1.10511 4.1392C1.60701 3.15435 2.33144 2.36837 3.27841 1.78125C4.23485 1.19413 5.39015 0.900568 6.74432 0.900568C8.14583 0.900568 9.32008 1.19413 10.267 1.78125C11.214 2.36837 11.9337 3.15435 12.4261 4.1392C12.9186 5.11458 13.1648 6.18939 13.1648 7.36364V8.89773C13.1648 10.072 12.9138 11.1468 12.4119 12.1222C11.9195 13.0975 11.1951 13.8788 10.2386 14.4659C9.29167 15.0436 8.12689 15.3324 6.74432 15.3324C5.36174 15.3324 4.19224 15.0388 3.2358 14.4517C2.28883 13.8551 1.56913 13.0739 1.0767 12.108C0.59375 11.1326 0.352273 10.0625 0.352273 8.89773ZM4.5142 7.36364V8.89773C4.5142 9.58901 4.67519 10.2282 4.99716 10.8153C5.3286 11.4025 5.91099 11.696 6.74432 11.696C7.61553 11.696 8.20739 11.4025 8.51989 10.8153C8.84186 10.2282 9.00284 9.58901 9.00284 8.89773V7.36364C9.00284 6.67235 8.85133 6.02841 8.5483 5.43182C8.24527 4.83523 7.64394 4.53693 6.74432 4.53693C5.90152 4.53693 5.31913 4.83996 4.99716 5.44602C4.67519 6.05208 4.5142 6.69129 4.5142 7.36364ZM2.22727 31L22.2273 1.90909H25.9489L5.94886 31H2.22727Z" fill="#00D757"/>
</svg>
